<svg version="1.1" xmlns="http://www.w3.org/2000/svg" viewBox="0 0 68 35" width="68" height="35">
  <!-- svg-source:excalidraw -->
  
  <defs>
    <style>
      @font-face {
        font-family: "Virgil";
        src: url("https://excalidraw.com/Virgil.woff2");
      }
      @font-face {
        font-family: "Cascadia";
        src: url("https://excalidraw.com/Cascadia.woff2");
      }
    </style>
  </defs>
  <g stroke-linecap="round"><g transform="translate(10 10) rotate(0 16.5 0.5)"><path d="M0 0 C5.5 0.17, 27.5 0.83, 33 1 M0 0 C5.5 0.17, 27.5 0.83, 33 1" stroke="#000000" stroke-width="2" fill="none"></path></g></g><g stroke-linecap="round"><g transform="translate(44 12) rotate(0 0 1.5)"><path d="M0 0 C0 0.5, 0 2.5, 0 3 M0 0 C0 0.5, 0 2.5, 0 3" stroke="#c92a2a" stroke-width="2" fill="none"></path></g></g><g stroke-linecap="round"><g transform="translate(44.5 15.5) rotate(0 2 0)"><path d="M0 0 C0.67 0, 3.33 0, 4 0 M0 0 C0.67 0, 3.33 0, 4 0" stroke="#000000" stroke-width="2" fill="none"></path></g></g><g stroke-linecap="round"><g transform="translate(49 16.5) rotate(0 0 1.5)"><path d="M0 0 C0 0.5, 0 2.5, 0 3 M0 0 C0 0.5, 0 2.5, 0 3" stroke="#c92a2a" stroke-width="2" fill="none"></path></g></g><g stroke-linecap="round"><g transform="translate(54 20.5) rotate(0 0 1.5)"><path d="M0 0 C0 0.5, 0 2.5, 0 3 M0 0 C0 0.5, 0 2.5, 0 3" stroke="#c92a2a" stroke-width="2" fill="none"></path></g></g><g stroke-linecap="round"><g transform="translate(50 20) rotate(0 2 0)"><path d="M0 0 C0.67 0, 3.33 0, 4 0 M0 0 C0.67 0, 3.33 0, 4 0" stroke="#000000" stroke-width="2" fill="none"></path></g></g><g stroke-linecap="round"><g transform="translate(54 25) rotate(0 2 0)"><path d="M0 0 C0.67 0, 3.33 0, 4 0 M0 0 C0.67 0, 3.33 0, 4 0" stroke="#000000" stroke-width="2" fill="none"></path></g></g></svg>