<svg version="1.1" xmlns="http://www.w3.org/2000/svg" viewBox="0 0 685.6503934092096 454.7311698778768" width="1371.3007868184193" height="909.4623397557536">
  <!-- svg-source:excalidraw -->
  
  <defs>
    <style>
      @font-face {
        font-family: "Virgil";
        src: url("https://excalidraw.com/Virgil.woff2");
      }
      @font-face {
        font-family: "Cascadia";
        src: url("https://excalidraw.com/Cascadia.woff2");
      }
    </style>
  </defs>
  <g transform="translate(10.1503934092093 10.731169877876596) rotate(359.31793960682734 61.5 13)"><text x="0" y="18" font-family="-apple-system, BlinkMacSystemFont, 'Segoe UI', Helvetica, 'Apple Color Emoji', Arial, sans-serif, 'Segoe UI Emoji', 'Segoe UI Symbol'" font-size="20px" fill="#000000" text-anchor="start" style="white-space: pre;" direction="ltr">Ease of use</text></g><g transform="translate(524.1503934092096 418.7311698778768) rotate(0 61 13)"><text x="0" y="18" font-family="-apple-system, BlinkMacSystemFont, 'Segoe UI', Helvetica, 'Apple Color Emoji', Arial, sans-serif, 'Segoe UI Emoji', 'Segoe UI Symbol'" font-size="20px" fill="#000000" text-anchor="start" style="white-space: pre;" direction="ltr">Functionality</text></g><g stroke-linecap="round"><g transform="translate(53.77906993596048 436.8152001228268) rotate(359.34630348216996 2.1619740791484787 -195.37633343059866)"><path d="M-1.2 0.16 C-0.4 -65.01, 4.5 -325.71, 5.52 -390.92 M0.38 -0.8 C1 -65.78, 4.27 -324.54, 4.91 -389.37" stroke="#000000" stroke-width="2" fill="none"></path></g><g transform="translate(53.77906993596048 436.8152001228268) rotate(359.34630348216996 2.1619740791484787 -195.37633343059866)"><path d="M15.12 -360 C11.21 -371.35, 7.34 -380.53, 3.33 -388 M15.57 -360.1 C12.46 -367.3, 10.56 -373.29, 4.9 -388.88" stroke="#000000" stroke-width="2" fill="none"></path></g><g transform="translate(53.77906993596048 436.8152001228268) rotate(359.34630348216996 2.1619740791484787 -195.37633343059866)"><path d="M-5.4 -360.24 C-1.84 -371.3, 1.75 -380.39, 3.33 -388 M-4.95 -360.33 C-3.87 -367.34, -1.59 -373.28, 4.9 -388.88" stroke="#000000" stroke-width="2" fill="none"></path></g></g><g stroke-linecap="round"><g transform="translate(56.15039340920964 438.7311698778768) rotate(0 228.7034456472844 -0.5212082483619724)"><path d="M-0.89 -0.93 C75.3 -0.91, 381.85 -0.28, 458.3 -0.42 M0.85 1.2 C76.8 0.91, 381.49 -1.9, 457.5 -2.24" stroke="#000000" stroke-width="2" fill="none"></path></g><g transform="translate(56.15039340920964 438.7311698778768) rotate(0 228.7034456472844 -0.5212082483619724)"><path d="M427.84 8.72 C441.58 3.96, 450.54 -0.41, 458.89 -1.05 M428.58 7.28 C438.68 4.39, 447.78 1.85, 457.61 -2.49" stroke="#000000" stroke-width="2" fill="none"></path></g><g transform="translate(56.15039340920964 438.7311698778768) rotate(0 228.7034456472844 -0.5212082483619724)"><path d="M427.69 -11.81 C441.4 -8.4, 450.42 -4.62, 458.89 -1.05 M428.43 -13.24 C438.64 -9.48, 447.79 -5.37, 457.61 -2.49" stroke="#000000" stroke-width="2" fill="none"></path></g></g><g stroke-linecap="round"><g transform="translate(344.15039340920964 435.7311698778768) rotate(0 0.22838271286190093 -176.7661045711488)"><path d="M0.29 0.97 C0.5 -58.21, 0.29 -295.38, 0.08 -354.51" stroke="#343a40" stroke-width="1.5" fill="none" stroke-dasharray="8 9"></path></g></g><g transform="translate(58.15039340920964 111.73116987787682) rotate(0 142 19.5)" stroke="none" fill="#000000"><path d="M 1.10,-2.20 Q 1.10,-2.20 1.70,-1.96 2.29,-1.72 3.42,-1.81 4.56,-1.89 5.95,-1.99 7.35,-2.08 9.16,-1.27 10.97,-0.47 11.94,-0.91 12.92,-1.35 14.24,-1.40 15.56,-1.45 16.67,-1.48 17.78,-1.51 19.15,-1.54 20.52,-1.56 21.66,-1.59 22.81,-1.61 24.17,-1.64 25.54,-1.66 27.92,-0.11 30.30,1.43 29.35,0.72 28.40,0.02 29.96,0.27 31.51,0.53 32.66,0.38 33.80,0.22 35.49,1.04 37.18,1.86 38.37,1.52 39.56,1.19 40.68,1.18 41.80,1.18 43.08,1.18 44.35,1.18 45.81,1.19 47.26,1.20 48.47,1.21 49.68,1.22 51.32,1.24 52.97,1.26 54.21,1.26 55.46,1.25 56.61,1.25 57.76,1.24 59.03,1.24 60.29,1.25 61.74,1.26 63.19,1.26 64.33,1.26 65.47,1.25 66.87,1.26 68.27,1.26 69.78,1.26 71.29,1.26 72.77,1.27 74.26,1.27 75.35,1.27 76.44,1.27 77.91,1.28 79.37,1.29 80.86,1.29 82.34,1.28 83.53,1.28 84.72,1.27 86.08,1.27 87.45,1.26 89.08,1.94 90.72,2.61 92.20,2.91 93.69,3.21 95.11,3.27 96.54,3.34 97.82,3.84 99.09,4.34 100.44,4.35 101.79,4.36 103.07,4.91 104.36,5.45 105.85,5.36 107.34,5.27 108.99,5.92 110.65,6.58 112.03,7.02 113.41,7.46 115.57,8.04 117.73,8.62 119.42,9.25 121.10,9.89 122.22,9.58 123.33,9.27 124.83,9.27 126.34,9.27 127.99,9.93 129.64,10.58 131.05,10.42 132.46,10.25 133.61,10.25 134.76,10.24 136.06,10.24 137.35,10.24 138.82,10.24 140.29,10.24 142.30,10.82 144.31,11.39 145.39,11.32 146.47,11.24 147.88,11.24 149.30,11.24 150.37,11.24 151.44,11.24 153.42,11.84 155.40,12.43 156.56,12.34 157.71,12.24 159.01,12.24 160.30,12.24 162.09,12.96 163.87,13.68 165.60,14.01 167.32,14.34 168.54,14.28 169.75,14.22 171.75,14.90 173.74,15.58 175.11,15.39 176.49,15.20 177.65,15.20 178.81,15.19 181.27,16.38 183.73,17.57 184.55,16.87 185.37,16.18 186.45,16.17 187.54,16.17 189.69,16.57 191.84,16.98 192.96,17.08 194.08,17.19 195.20,17.20 196.32,17.21 197.99,17.87 199.67,18.53 200.73,18.36 201.80,18.20 203.59,18.79 205.38,19.38 206.86,19.30 208.34,19.21 210.06,19.90 211.78,20.59 213.56,20.96 215.34,21.33 217.47,21.61 219.61,21.89 220.51,22.50 221.41,23.11 222.48,22.65 223.55,22.19 225.40,23.03 227.24,23.86 228.42,23.99 229.61,24.12 231.18,24.85 232.75,25.58 233.70,26.57 234.64,27.57 235.95,28.28 237.25,28.99 236.21,28.09 235.17,27.18 236.36,27.18 237.56,27.19 238.68,27.18 239.81,27.17 241.73,27.85 243.65,28.53 244.48,29.28 245.32,30.03 244.08,29.08 242.84,28.14 244.20,28.15 245.55,28.15 247.73,29.43 249.90,30.71 250.73,29.92 251.56,29.14 252.69,29.13 253.81,29.13 254.89,29.13 255.96,29.12 257.26,29.12 258.56,29.12 259.69,29.12 260.81,29.12 261.88,29.11 262.96,29.11 264.26,29.11 265.56,29.11 267.74,30.41 269.93,31.70 268.86,31.21 267.79,30.72 268.85,30.41 269.91,30.11 271.24,30.11 272.57,30.11 273.69,30.10 274.81,30.10 275.89,30.10 276.96,30.10 279.91,32.02 282.86,33.95 281.57,32.81 280.27,31.68 281.79,32.25 283.31,32.81 284.40,34.11 285.49,35.41 285.69,36.49 285.89,37.57 286.86,37.93 287.82,38.30 287.83,38.93 287.84,39.56 287.65,40.16 287.46,40.76 287.09,41.26 286.72,41.77 286.20,42.13 285.68,42.49 285.08,42.67 284.48,42.85 283.85,42.83 283.22,42.80 282.63,42.58 282.04,42.36 281.56,41.96 281.07,41.56 280.74,41.02 280.40,40.49 280.26,39.88 280.11,39.26 280.17,38.64 280.23,38.01 280.48,37.43 280.74,36.86 281.16,36.39 281.59,35.93 282.14,35.63 282.69,35.32 283.31,35.21 283.93,35.10 284.55,35.19 285.18,35.28 285.74,35.57 286.30,35.85 286.74,36.30 287.18,36.75 287.45,37.32 287.73,37.89 287.80,38.51 287.88,39.14 287.76,39.75 287.63,40.37 287.32,40.92 287.00,41.46 286.53,41.88 286.05,42.29 285.47,42.53 284.89,42.78 284.26,42.82 283.63,42.86 283.03,42.71 282.42,42.55 281.89,42.20 281.36,41.86 280.97,41.36 280.58,40.87 280.37,40.27 280.16,39.68 280.16,39.68 280.16,39.68 279.25,38.13 278.34,36.58 279.95,38.23 281.56,39.88 279.64,38.92 277.71,37.95 276.41,36.00 275.12,34.04 276.46,35.97 277.81,37.89 276.69,37.89 275.57,37.89 274.27,37.89 272.96,37.89 271.89,37.88 270.81,37.88 269.68,37.88 268.55,37.88 267.38,37.56 266.20,37.24 264.94,35.77 263.69,34.29 264.25,35.58 264.81,36.88 263.68,36.88 262.56,36.88 261.26,36.87 259.96,36.87 258.89,36.87 257.81,36.87 256.67,36.87 255.54,36.86 254.25,36.86 252.96,36.86 251.89,36.86 250.81,36.85 249.66,36.84 248.50,36.84 247.32,36.62 246.13,36.39 244.92,34.84 243.72,33.28 244.12,34.56 244.53,35.83 243.40,35.81 242.27,35.79 241.22,35.23 240.16,34.67 239.23,33.89 238.30,33.11 239.63,33.97 240.96,34.83 239.89,34.82 238.81,34.81 237.67,34.81 236.52,34.80 235.21,34.73 233.90,34.66 232.10,33.55 230.30,32.44 228.69,31.86 227.08,31.28 226.00,30.98 224.92,30.68 223.72,30.24 222.53,29.79 221.38,29.77 220.23,29.74 218.77,29.26 217.31,28.78 216.10,28.73 214.90,28.69 213.71,28.24 212.53,27.79 211.40,27.77 210.26,27.74 209.30,27.26 208.34,26.78 206.87,26.77 205.41,26.77 203.77,26.23 202.14,25.69 200.91,25.73 199.68,25.78 198.51,25.62 197.34,25.46 195.93,25.12 194.53,24.78 193.21,24.75 191.90,24.71 190.69,24.27 189.49,23.83 188.15,23.82 186.81,23.82 185.67,23.82 184.53,23.82 183.38,23.79 182.24,23.77 181.19,23.57 180.15,23.37 178.99,21.90 177.83,20.42 179.16,21.61 180.49,22.81 179.23,22.80 177.96,22.80 176.88,22.79 175.79,22.78 174.67,22.77 173.54,22.75 172.44,22.60 171.33,22.45 169.85,22.10 168.36,21.76 166.80,21.57 165.25,21.38 164.24,21.05 163.23,20.72 161.96,20.24 160.70,19.76 159.61,19.76 158.51,19.76 157.41,19.75 156.31,19.75 155.12,19.69 153.93,19.64 152.10,19.19 150.27,18.74 148.87,18.75 147.47,18.75 146.36,18.74 145.26,18.73 143.81,18.58 142.36,18.44 141.33,18.10 140.29,17.75 139.01,17.75 137.72,17.76 136.60,17.75 135.47,17.75 134.41,17.74 133.34,17.74 131.88,17.73 130.43,17.73 129.09,17.62 127.74,17.52 126.59,17.12 125.44,16.72 124.37,16.72 123.30,16.71 122.11,16.69 120.91,16.67 119.61,16.52 118.30,16.37 117.27,16.02 116.23,15.67 115.22,15.19 114.22,14.71 113.06,14.66 111.91,14.61 110.13,14.01 108.35,13.41 106.78,13.06 105.22,12.70 104.07,12.65 102.93,12.61 101.08,12.14 99.22,11.67 97.62,11.16 96.01,10.65 94.63,10.67 93.25,10.68 91.57,10.15 89.89,9.63 88.67,9.18 87.45,8.73 86.08,8.72 84.72,8.72 83.53,8.71 82.34,8.71 80.86,8.70 79.37,8.70 77.91,8.71 76.44,8.72 75.35,8.72 74.26,8.72 72.77,8.72 71.29,8.73 69.78,8.73 68.27,8.73 66.87,8.73 65.47,8.74 64.33,8.73 63.19,8.73 61.94,8.74 60.70,8.75 59.58,8.75 58.47,8.75 57.41,8.74 56.34,8.74 54.95,8.74 53.56,8.73 52.29,8.74 51.01,8.75 49.64,8.76 48.26,8.78 46.78,8.79 45.30,8.80 44.05,8.81 42.80,8.82 41.65,8.81 40.49,8.81 39.20,8.80 37.92,8.80 36.80,8.78 35.69,8.77 34.74,8.27 33.80,7.77 32.61,7.75 31.42,7.73 29.98,7.22 28.53,6.71 27.05,6.16 25.56,5.61 24.54,4.08 23.53,2.56 25.17,4.12 26.81,5.68 25.68,5.67 24.56,5.65 23.23,5.62 21.90,5.60 20.81,5.57 19.72,5.55 18.60,5.53 17.48,5.50 16.14,5.46 14.80,5.43 13.68,5.38 12.55,5.33 11.41,5.27 10.27,5.20 8.81,4.64 7.35,4.08 5.95,3.99 4.55,3.89 3.44,3.78 2.32,3.67 1.16,3.27 0.00,2.87 -0.55,2.53 -1.10,2.20 -1.35,2.04 -1.59,1.87 -1.80,1.65 -2.00,1.44 -2.14,1.18 -2.28,0.91 -2.36,0.63 -2.44,0.34 -2.44,0.04 -2.45,-0.24 -2.38,-0.53 -2.32,-0.82 -2.18,-1.09 -2.05,-1.36 -1.86,-1.58 -1.67,-1.81 -1.43,-1.98 -1.18,-2.16 -0.91,-2.27 -0.63,-2.38 -0.34,-2.42 -0.04,-2.46 0.24,-2.43 0.54,-2.40 0.82,-2.30 1.10,-2.20 1.10,-2.20 L 1.10,-2.20 Z"></path></g><g transform="translate(251.15039340920964 27.731169877876823) rotate(0 103.5 25.5)"><text x="103.5" y="18.5" font-family="-apple-system, BlinkMacSystemFont, 'Segoe UI', Helvetica, 'Apple Color Emoji', Arial, sans-serif, 'Segoe UI Emoji', 'Segoe UI Symbol'" font-size="20px" fill="#000000" text-anchor="middle" style="white-space: pre;" direction="ltr">Limit to functionality</text><text x="103.5" y="44" font-family="-apple-system, BlinkMacSystemFont, 'Segoe UI', Helvetica, 'Apple Color Emoji', Arial, sans-serif, 'Segoe UI Emoji', 'Segoe UI Symbol'" font-size="20px" fill="#000000" text-anchor="middle" style="white-space: pre;" direction="ltr">by the platform</text></g><g transform="translate(345.15039340920964 150.73116987787682) rotate(0 1.5 26)" stroke="none" fill="#000000"><path d="M 2.60,0 Q 2.60,0 2.62,1.15 2.64,2.3 3.10,3.44 3.56,4.59 3.74,5.86 3.93,7.14 4.55,8.79 5.18,10.44 5.24,11.61 5.31,12.78 5.35,13.84 5.39,14.90 5.91,16.09 6.43,17.29 6.48,18.43 6.54,19.56 6.56,20.69 6.59,21.81 6.62,22.89 6.64,23.96 5.42,26.37 4.20,28.78 4.95,27.73 5.71,26.69 4.13,29.51 2.56,32.34 3.28,31.38 4.00,30.41 4.39,31.49 4.77,32.56 4.78,33.69 4.79,34.81 4.11,36.22 3.43,37.63 2.69,38.46 1.95,39.28 2.88,38.22 3.82,37.16 3.82,38.36 3.81,39.56 3.82,40.69 3.83,41.81 3.83,42.89 3.84,43.96 3.84,45.26 3.84,46.56 2.96,45.41 2.08,44.27 2.89,45.22 3.69,46.18 4.25,47.22 4.81,48.27 3.41,48.20 2.02,48.13 2.63,48.24 3.25,48.34 3.80,48.64 4.35,48.93 4.78,49.39 5.21,49.85 5.46,50.42 5.72,50.98 5.79,51.61 5.85,52.23 5.71,52.84 5.57,53.45 5.25,53.98 4.92,54.51 4.45,54.92 3.97,55.32 3.38,55.54 2.80,55.77 2.18,55.80 1.55,55.83 0.95,55.66 0.35,55.49 -0.15,55.14 -0.67,54.78 -1.04,54.28 -1.42,53.78 -1.61,53.19 -1.81,52.60 -1.81,51.97 -1.80,51.35 -1.60,50.76 -1.40,50.16 -1.02,49.67 -0.63,49.17 -0.11,48.83 0.39,48.48 1.00,48.32 1.60,48.15 2.22,48.19 2.85,48.23 3.43,48.46 4.01,48.70 4.48,49.11 4.95,49.51 5.27,50.05 5.59,50.59 5.72,51.20 5.85,51.81 5.78,52.43 5.71,53.05 5.44,53.62 5.18,54.18 4.75,54.63 4.31,55.08 3.76,55.37 3.21,55.66 2.59,55.76 1.97,55.86 1.97,55.86 1.97,55.86 -0.44,52.35 -2.87,48.84 -1.90,50.10 -0.93,51.36 -1.68,50.54 -2.42,49.72 -3.13,47.64 -3.84,45.56 -3.84,44.26 -3.83,42.96 -3.83,41.89 -3.82,40.81 -3.82,39.68 -3.81,38.55 -3.74,37.23 -3.67,35.91 -2.38,34.12 -1.10,32.33 -1.94,33.65 -2.79,34.96 -2.78,33.89 -2.77,32.81 -2.76,31.65 -2.74,30.49 -2.19,29.02 -1.64,27.55 -0.10,26.52 1.43,25.49 -0.13,26.52 -1.71,27.55 -1.36,26.34 -1.01,25.12 0.38,23.99 1.79,22.85 0.56,24.21 -0.67,25.56 -0.64,24.26 -0.62,22.96 -0.59,21.89 -0.57,20.81 -0.32,19.75 -0.06,18.69 -0.65,17.50 -1.23,16.31 -1.28,14.89 -1.33,13.48 -0.80,12.26 -0.27,11.04 -1.16,9.76 -2.05,8.47 -1.81,7.36 -1.58,6.24 -2.11,4.27 -2.64,2.3 -2.62,1.15 -2.60,0 -2.56,-0.31 -2.52,-0.62 -2.41,-0.91 -2.30,-1.20 -2.12,-1.46 -1.94,-1.72 -1.71,-1.93 -1.47,-2.14 -1.20,-2.28 -0.92,-2.43 -0.61,-2.50 -0.31,-2.58 0.00,-2.58 0.31,-2.58 0.61,-2.50 0.92,-2.43 1.20,-2.28 1.47,-2.14 1.71,-1.93 1.94,-1.72 2.12,-1.46 2.30,-1.20 2.41,-0.91 2.52,-0.62 2.56,-0.31 2.60,0.00 2.60,0.00 L 2.60,0 Z"></path></g><g transform="translate(344.15039340920964 150.73116987787682) rotate(0 2 89)" stroke="none" fill="#000000"><path d="M 2.21,-1.10 Q 2.21,-1.10 2.54,-0.55 2.88,-0.00 3.68,0.84 4.49,1.69 5.41,2.77 6.33,3.85 6.73,4.88 7.13,5.91 7.20,7.22 7.27,8.54 7.33,9.68 7.38,10.81 7.42,11.89 7.46,12.96 7.50,14.27 7.54,15.57 7.57,16.69 7.60,17.81 7.62,19.17 7.64,20.53 7.66,21.66 7.68,22.80 7.69,24.14 7.71,25.49 7.72,26.65 7.74,27.81 7.75,29.17 7.76,30.53 7.77,31.67 7.78,32.81 7.79,33.89 7.80,34.96 7.81,36.26 7.81,37.56 7.82,38.68 7.83,39.81 7.83,40.88 7.83,41.96 7.84,43.26 7.84,44.56 7.84,45.67 7.84,46.78 7.84,47.87 7.85,48.96 7.85,50.25 7.85,51.54 7.85,52.67 7.86,53.81 7.86,55.17 7.86,56.54 7.86,57.67 7.86,58.80 7.86,60.09 7.85,61.37 7.85,62.45 7.86,63.53 7.86,64.67 7.86,65.80 7.86,66.88 7.86,67.96 7.87,69.25 7.87,70.54 7.87,71.68 7.87,72.81 7.87,73.89 7.88,74.96 7.88,76.26 7.88,77.56 7.88,78.68 7.88,79.81 7.88,81.15 7.88,82.49 7.88,83.64 7.88,84.80 7.88,85.88 7.88,86.96 7.17,88.34 6.46,89.72 6.66,91.10 6.87,92.48 6.77,93.90 6.66,95.33 6.03,96.63 5.41,97.92 5.62,99.20 5.84,100.48 5.84,101.64 5.85,102.80 5.85,104.17 5.85,105.53 5.85,106.67 5.86,107.81 5.86,108.89 5.86,109.96 5.87,111.27 5.87,112.57 5.87,113.69 5.87,114.81 5.87,115.89 5.88,116.96 5.88,118.26 5.88,119.57 5.88,120.69 5.88,121.81 5.88,122.89 5.88,123.96 5.88,125.25 5.88,126.54 5.88,127.66 5.88,128.78 5.88,130.15 5.87,131.52 5.87,132.62 5.86,133.72 5.86,135.04 5.85,136.35 5.84,137.84 5.83,139.34 5.83,140.43 5.83,141.53 5.83,142.65 5.83,143.77 5.83,145.12 5.83,146.48 5.83,147.64 5.83,148.80 5.83,150.16 5.84,151.53 5.84,152.67 5.85,153.81 5.85,154.89 5.86,155.96 5.86,157.22 5.86,158.49 5.86,159.65 5.86,160.81 5.86,161.88 5.87,162.96 5.87,164.25 5.87,165.54 5.04,167.39 4.20,169.24 4.53,170.37 4.87,171.49 4.87,172.65 4.87,173.81 4.87,175.15 4.87,176.49 0.99,176.24 -2.87,176 -2.77,175.38 -2.67,174.76 -2.38,174.20 -2.08,173.65 -1.63,173.22 -1.17,172.79 -0.60,172.52 -0.03,172.26 0.58,172.19 1.21,172.12 1.82,172.26 2.43,172.39 2.97,172.72 3.51,173.04 3.91,173.52 4.32,174.00 4.55,174.58 4.78,175.16 4.82,175.79 4.85,176.41 4.68,177.02 4.51,177.62 4.16,178.14 3.81,178.66 3.31,179.04 2.81,179.42 2.22,179.62 1.62,179.82 0.99,179.82 0.37,179.82 -0.22,179.62 -0.81,179.42 -1.31,179.04 -1.81,178.66 -2.16,178.14 -2.51,177.62 -2.68,177.02 -2.85,176.41 -2.82,175.79 -2.78,175.16 -2.55,174.58 -2.32,174.00 -1.91,173.52 -1.50,173.04 -0.97,172.72 -0.43,172.39 0.17,172.26 0.79,172.12 1.41,172.19 2.03,172.26 2.60,172.52 3.17,172.79 3.63,173.22 4.08,173.65 4.38,174.20 4.67,174.76 4.77,175.38 4.87,176.00 4.87,176.00 4.87,176 0.99,176.48 -2.87,176.96 -2.87,175.88 -2.87,174.81 -2.87,173.67 -2.87,172.53 -2.87,171.17 -2.87,169.81 -2.86,168.62 -2.85,167.43 -2.36,166.49 -1.87,165.54 -1.87,164.25 -1.87,162.96 -1.86,161.88 -1.86,160.81 -1.86,159.65 -1.86,158.49 -1.86,157.22 -1.86,155.96 -1.85,154.89 -1.85,153.81 -1.84,152.67 -1.84,151.53 -1.83,150.16 -1.83,148.80 -1.83,147.64 -1.83,146.48 -1.83,145.12 -1.83,143.77 -1.83,142.65 -1.83,141.53 -1.83,140.43 -1.83,139.34 -1.84,137.84 -1.85,136.35 -1.86,135.04 -1.86,133.72 -1.87,132.62 -1.87,131.52 -1.88,130.15 -1.88,128.78 -1.88,127.66 -1.88,126.54 -1.88,125.25 -1.88,123.96 -1.88,122.89 -1.88,121.81 -1.88,120.69 -1.88,119.57 -1.88,118.26 -1.88,116.96 -1.87,115.89 -1.87,114.81 -1.87,113.69 -1.87,112.57 -1.87,111.27 -1.86,109.96 -1.86,108.89 -1.86,107.81 -1.85,106.67 -1.85,105.53 -1.85,104.22 -1.85,102.91 -1.85,101.84 -1.84,100.77 -1.84,99.59 -1.84,98.41 -1.79,97.16 -1.73,95.91 -1.30,94.84 -0.87,93.77 -0.87,92.63 -0.87,91.48 -0.85,90.36 -0.83,89.23 -0.35,87.60 0.11,85.96 0.11,84.88 0.11,83.80 0.11,82.67 0.11,81.53 0.11,80.17 0.11,78.81 0.11,77.69 0.11,76.57 0.11,75.26 0.12,73.96 0.12,72.88 0.12,71.80 0.12,70.68 0.12,69.56 0.13,68.26 0.13,66.96 0.13,65.88 0.13,64.80 0.13,63.66 0.14,62.52 0.13,61.15 0.13,59.78 0.13,58.63 0.13,57.49 0.13,56.15 0.13,54.81 0.13,53.67 0.14,52.53 0.14,51.17 0.14,49.81 0.15,48.65 0.15,47.48 0.15,46.22 0.15,44.96 0.15,43.88 0.16,42.81 0.16,41.67 0.16,40.54 0.17,39.25 0.17,37.96 0.18,36.88 0.19,35.81 0.19,34.68 0.20,33.56 0.21,32.26 0.22,30.96 0.23,29.89 0.24,28.81 0.25,27.67 0.27,26.53 0.28,25.22 0.29,23.91 0.31,22.85 0.33,21.78 0.35,20.63 0.36,19.49 0.39,18.23 0.41,16.96 0.44,15.89 0.47,14.81 0.51,13.69 0.54,12.57 0.59,11.26 0.64,9.96 0.70,8.89 0.75,7.81 0.82,6.69 0.88,5.58 1.74,6.65 2.59,7.72 1.82,6.95 1.05,6.19 0.59,5.02 0.14,3.85 -0.79,3.07 -1.73,2.30 -1.97,1.70 -2.21,1.10 -2.31,0.82 -2.41,0.54 -2.44,0.24 -2.47,-0.04 -2.43,-0.34 -2.39,-0.64 -2.28,-0.91 -2.17,-1.19 -1.99,-1.43 -1.82,-1.67 -1.59,-1.87 -1.36,-2.06 -1.10,-2.20 -0.83,-2.33 -0.54,-2.40 -0.25,-2.46 0.04,-2.45 0.34,-2.45 0.63,-2.37 0.92,-2.29 1.18,-2.15 1.44,-2.01 1.66,-1.80 1.88,-1.60 2.05,-1.35 2.21,-1.10 2.21,-1.10 L 2.21,-1.10 Z"></path></g><g transform="translate(344.15039340920964 325.7311698778768) rotate(0 84.5 35)" stroke="none" fill="#000000"><path d="M 2.48,0 Q 2.48,0 2.53,0.57 2.58,1.15 2.69,2.35 2.81,3.55 2.90,4.67 2.99,5.80 3.08,7.17 3.17,8.53 3.22,9.67 3.28,10.81 3.33,11.89 3.38,12.96 3.92,14.23 4.47,15.51 4.50,16.66 4.54,17.81 4.57,19.17 4.59,20.52 4.62,21.67 4.64,22.81 4.66,23.88 4.68,24.96 4.70,26.26 4.71,27.56 3.48,27.18 2.24,26.80 3.35,27.52 4.46,28.25 5.06,29.21 5.67,30.16 5.72,31.36 5.77,32.57 5.78,33.69 5.79,34.81 5.80,36.15 5.80,37.49 5.81,38.65 5.82,39.81 4.03,38.04 2.24,36.27 4.29,37.79 6.33,39.31 7.08,40.93 7.83,42.55 6.54,41.14 5.26,39.73 6.74,40.98 8.22,42.22 6.91,41.32 5.61,40.43 7.17,41.47 8.73,42.51 9.54,43.29 10.36,44.07 9.03,43.10 7.69,42.13 9.63,43.88 11.57,45.62 10.12,44.55 8.68,43.48 10.56,44.97 12.43,46.46 11.39,45.62 10.34,44.78 11.46,45.10 12.58,45.43 13.45,46.20 14.31,46.97 13.00,46.04 11.69,45.12 13.47,45.96 15.24,46.80 16.41,48.21 17.58,49.62 16.82,48.44 16.06,47.25 17.50,48.49 18.94,49.74 17.85,49.23 16.77,48.72 18.72,49.11 20.68,49.51 21.51,50.26 22.35,51.01 21.26,50.06 20.18,49.10 21.37,49.11 22.56,49.12 23.69,49.12 24.81,49.11 26.15,49.12 27.49,49.12 28.64,49.12 29.80,49.12 31.14,49.12 32.49,49.12 34.12,50.33 35.76,51.53 37.85,52.13 39.94,52.72 38.86,52.22 37.77,51.72 39.76,52.13 41.74,52.55 42.56,53.30 43.38,54.05 42.39,53.55 41.41,53.04 42.49,52.58 43.57,52.11 44.69,52.11 45.81,52.11 47.65,53.76 49.49,55.41 48.48,54.64 47.47,53.87 48.52,53.49 49.57,53.10 51.73,55.05 53.89,56.99 52.57,55.83 51.26,54.67 52.41,54.38 53.57,54.10 55.77,55.41 57.96,56.73 56.91,55.90 55.86,55.08 56.92,55.09 57.99,55.10 60.36,56.92 62.73,58.74 61.90,57.48 61.07,56.22 62.31,56.16 63.56,56.10 64.68,56.10 65.81,56.10 67.66,57.76 69.50,59.41 68.17,58.50 66.84,57.58 67.87,57.34 68.91,57.10 70.23,57.10 71.55,57.10 73.15,57.82 74.74,58.54 75.56,59.29 76.39,60.04 75.12,59.06 73.84,58.08 75.31,58.25 76.77,58.42 78.03,59.11 79.29,59.80 80.51,60.16 81.72,60.53 82.55,61.28 83.38,62.03 82.41,61.54 81.44,61.04 82.50,60.57 83.56,60.11 84.68,60.10 85.81,60.10 87.13,60.11 88.45,60.12 89.87,60.13 91.29,60.14 92.78,60.16 94.26,60.17 95.76,60.19 97.26,60.20 98.35,60.20 99.44,60.21 100.62,60.20 101.80,60.20 103.14,60.19 104.49,60.19 105.93,60.19 107.37,60.19 108.55,60.19 109.73,60.19 112.02,60.74 114.31,61.30 115.81,61.25 117.31,61.20 118.37,61.20 119.44,61.21 120.57,61.21 121.70,61.21 123.94,61.73 126.18,62.24 127.29,62.23 128.39,62.22 129.56,62.22 130.73,62.22 132.10,62.84 133.48,63.45 134.34,64.20 135.21,64.95 134.02,64.07 132.83,63.18 134.18,63.19 135.53,63.19 136.66,63.19 137.78,63.18 139.36,63.93 140.95,64.67 142.21,64.43 143.48,64.18 144.64,64.18 145.80,64.17 148.27,65.36 150.74,66.56 151.65,65.86 152.55,65.16 154.75,65.89 156.95,66.63 158.26,66.39 159.57,66.15 160.67,66.14 161.78,66.14 162.85,66.14 163.92,66.13 166.46,66.13 169,66.13 169.61,66.23 170.23,66.33 170.78,66.62 171.34,66.92 171.77,67.37 172.20,67.82 172.46,68.39 172.72,68.96 172.79,69.58 172.86,70.20 172.72,70.82 172.59,71.43 172.27,71.96 171.94,72.50 171.47,72.90 170.99,73.31 170.41,73.54 169.83,73.77 169.20,73.81 168.58,73.84 167.97,73.67 167.37,73.51 166.85,73.15 166.33,72.80 165.96,72.30 165.58,71.81 165.38,71.21 165.18,70.62 165.18,69.99 165.18,69.37 165.38,68.78 165.58,68.18 165.96,67.68 166.34,67.19 166.85,66.84 167.37,66.48 167.97,66.32 168.58,66.15 169.20,66.18 169.83,66.22 170.41,66.45 170.99,66.68 171.47,67.09 171.94,67.49 172.27,68.03 172.59,68.56 172.72,69.18 172.86,69.79 172.79,70.41 172.72,71.03 172.46,71.60 172.20,72.17 171.77,72.62 171.34,73.08 170.78,73.37 170.23,73.66 169.61,73.76 168.99,73.86 168.99,73.86 169,73.86 166.78,73.86 164.56,73.86 163.26,73.85 161.96,73.85 160.89,73.85 159.81,73.85 158.67,73.84 157.53,73.84 156.39,73.81 155.26,73.79 153.37,73.31 151.48,72.83 150.36,72.81 149.24,72.78 148.19,72.58 147.14,72.38 145.98,70.91 144.82,69.43 146.16,70.63 147.49,71.82 146.14,71.82 144.80,71.81 143.63,71.81 142.47,71.80 141.35,71.78 140.23,71.76 138.50,71.28 136.78,70.81 135.66,70.80 134.53,70.80 133.40,70.77 132.27,70.74 131.20,70.19 130.13,69.63 129.25,68.91 128.38,68.19 129.55,68.98 130.73,69.77 129.53,69.76 128.32,69.75 127.11,69.69 125.89,69.62 124.80,69.20 123.71,68.78 122.50,68.77 121.29,68.77 119.99,68.78 118.68,68.78 117.49,68.79 116.31,68.79 115.10,68.74 113.90,68.70 112.21,68.25 110.52,67.81 109.20,67.80 107.88,67.80 106.80,67.80 105.72,67.80 104.63,67.80 103.53,67.80 102.22,67.80 100.90,67.79 99.79,67.79 98.68,67.78 97.47,67.79 96.26,67.80 94.76,67.81 93.26,67.83 91.81,67.84 90.35,67.86 88.85,67.87 87.36,67.87 86.16,67.88 84.96,67.89 83.88,67.89 82.80,67.89 81.67,67.88 80.55,67.88 79.55,67.41 78.55,66.94 77.39,66.02 76.24,65.11 76.88,65.99 77.51,66.88 76.54,66.38 75.57,65.89 74.42,65.86 73.27,65.84 72.21,65.28 71.16,64.72 70.20,63.91 69.24,63.10 70.60,63.99 71.96,64.89 70.88,64.89 69.80,64.89 68.68,64.89 67.57,64.89 66.36,64.57 65.14,64.26 63.74,62.42 62.33,60.58 63.65,62.23 64.96,63.89 63.89,63.89 62.81,63.89 61.68,63.89 60.54,63.89 59.30,63.65 58.06,63.40 57.27,62.56 56.48,61.72 55.84,60.48 55.19,59.25 57.00,61.07 58.81,62.89 57.69,62.89 56.57,62.89 55.18,62.44 53.79,62.00 52.73,60.63 51.67,59.26 52.74,60.58 53.81,61.89 52.69,61.89 51.57,61.89 50.15,61.42 48.73,60.96 47.42,58.98 46.10,57.00 47.96,58.94 49.81,60.89 48.69,60.88 47.57,60.88 46.03,60.32 44.50,59.76 43.42,58.17 42.34,56.58 43.65,58.23 44.96,59.88 43.89,59.88 42.81,59.88 41.69,59.88 40.56,59.87 39.57,59.41 38.58,58.94 37.41,58.02 36.25,57.09 37.41,57.98 38.57,58.87 37.39,58.56 36.21,58.24 34.95,56.75 33.69,55.27 34.09,56.56 34.50,57.86 33.32,57.64 32.13,57.42 30.96,55.94 29.79,54.46 30.35,55.66 30.90,56.87 29.84,56.87 28.78,56.87 27.65,56.87 26.53,56.87 25.17,56.87 23.81,56.87 22.69,56.87 21.56,56.87 20.23,56.80 18.90,56.74 17.08,55.43 15.26,54.13 16.41,55.00 17.56,55.87 16.39,55.55 15.22,55.24 13.95,53.75 12.69,52.25 14.13,53.56 15.56,54.86 14.32,54.62 13.07,54.38 12.28,53.54 11.50,52.70 10.92,51.53 10.34,50.37 11.89,52.11 13.43,53.84 12.44,53.34 11.44,52.84 9.54,51.84 7.64,50.85 6.57,49.19 5.49,47.52 6.40,48.94 7.31,50.36 5.83,48.36 4.35,46.37 5.90,48.10 7.44,49.83 6.43,49.33 5.42,48.83 4.34,47.94 3.27,47.06 4.18,47.61 5.10,48.15 4.00,46.80 2.90,45.45 3.64,46.43 4.38,47.41 3.06,45.59 1.75,43.76 2.24,44.83 2.73,45.90 1.79,45.09 0.86,44.28 0.18,42.47 -0.49,40.67 0.62,42.16 1.75,43.66 -0.03,40.81 -1.81,37.96 -1.80,36.88 -1.80,35.81 -1.79,34.69 -1.78,33.57 -1.78,32.39 -1.77,31.20 -1.01,32.01 -0.24,32.82 -1.49,30.89 -2.73,28.96 -2.72,27.89 -2.71,26.81 -2.69,25.69 -2.67,24.56 -2.65,23.24 -2.62,21.91 -2.60,20.82 -2.58,19.74 -2.56,18.65 -2.53,17.56 -2.34,16.52 -2.14,15.47 -2.76,14.22 -3.38,12.96 -3.33,11.89 -3.28,10.81 -3.22,9.67 -3.17,8.53 -3.08,7.17 -2.99,5.80 -2.90,4.67 -2.81,3.55 -2.69,2.35 -2.58,1.15 -2.53,0.57 -2.48,0 -2.45,-0.29 -2.41,-0.59 -2.30,-0.87 -2.20,-1.15 -2.03,-1.40 -1.86,-1.64 -1.63,-1.84 -1.41,-2.04 -1.14,-2.18 -0.88,-2.32 -0.59,-2.39 -0.29,-2.46 0.00,-2.46 0.29,-2.46 0.59,-2.39 0.88,-2.32 1.14,-2.18 1.41,-2.04 1.63,-1.84 1.86,-1.64 2.03,-1.40 2.20,-1.15 2.30,-0.87 2.41,-0.59 2.45,-0.29 2.48,0.00 2.48,0.00 L 2.48,0 Z"></path></g><g stroke-linecap="round"><g transform="translate(395.15039340920964 274.81072535503324) rotate(0 -20.5 45.46022226142179)"><path d="M0 0 C-2.33 1.82, -9.83 5.93, -14 10.92 C-18.17 15.91, -22 21.92, -25 29.92 C-28 37.92, -29.33 48.75, -32 58.92 C-34.67 69.09, -39.5 85.59, -41 90.92 M0 0 C-2.33 1.82, -9.83 5.93, -14 10.92 C-18.17 15.91, -22 21.92, -25 29.92 C-28 37.92, -29.33 48.75, -32 58.92 C-34.67 69.09, -39.5 85.59, -41 90.92" stroke="#000000" stroke-width="1" fill="none"></path></g><g transform="translate(395.15039340920964 274.81072535503324) rotate(0 -20.5 45.46022226142179)"><path d="M-42.17 74.34 C-41.74 80.34, -41.32 86.34, -41 90.92 M-42.17 74.34 C-41.75 80.27, -41.33 86.19, -41 90.92" stroke="#000000" stroke-width="1" fill="none"></path></g><g transform="translate(395.15039340920964 274.81072535503324) rotate(0 -20.5 45.46022226142179)"><path d="M-31.24 77.47 C-34.77 82.34, -38.31 87.21, -41 90.92 M-31.24 77.47 C-34.73 82.28, -38.21 87.08, -41 90.92" stroke="#000000" stroke-width="1" fill="none"></path></g></g><g transform="translate(398.15039340920964 234.73116987787682) rotate(0 127 38.5)"><text x="0" y="17.666666666666668" font-family="-apple-system, BlinkMacSystemFont, 'Segoe UI', Helvetica, 'Apple Color Emoji', Arial, sans-serif, 'Segoe UI Emoji', 'Segoe UI Symbol'" font-size="20px" fill="#000000" text-anchor="start" style="white-space: pre;" direction="ltr">Extended functionality</text><text x="0" y="43.333333333333336" font-family="-apple-system, BlinkMacSystemFont, 'Segoe UI', Helvetica, 'Apple Color Emoji', Arial, sans-serif, 'Segoe UI Emoji', 'Segoe UI Symbol'" font-size="20px" fill="#000000" text-anchor="start" style="white-space: pre;" direction="ltr">by modifying the underlying</text><text x="0" y="69" font-family="-apple-system, BlinkMacSystemFont, 'Segoe UI', Helvetica, 'Apple Color Emoji', Arial, sans-serif, 'Segoe UI Emoji', 'Segoe UI Symbol'" font-size="20px" fill="#000000" text-anchor="start" style="white-space: pre;" direction="ltr">components</text></g><g stroke-linecap="round"><g transform="translate(291.15039340920964 188.73116987787682) rotate(0 22 -15)"><path d="M0 0 C7.33 -5, 36.67 -25, 44 -30 M0 0 C7.33 -5, 36.67 -25, 44 -30" stroke="#000000" stroke-width="1" fill="none"></path></g><g transform="translate(291.15039340920964 188.73116987787682) rotate(0 22 -15)"><path d="M28.46 -8.38 C32.48 -13.98, 36.51 -19.58, 44 -30 M28.46 -8.38 C32.01 -13.32, 35.56 -18.27, 44 -30" stroke="#000000" stroke-width="1" fill="none"></path></g><g transform="translate(291.15039340920964 188.73116987787682) rotate(0 22 -15)"><path d="M18.2 -23.43 C24.88 -25.13, 31.57 -26.83, 44 -30 M18.2 -23.43 C24.1 -24.93, 30 -26.43, 44 -30" stroke="#000000" stroke-width="1" fill="none"></path></g></g><g transform="translate(124.15039340920964 192.73116987787682) rotate(0 99.5 38.5)"><text x="0" y="17.666666666666668" font-family="-apple-system, BlinkMacSystemFont, 'Segoe UI', Helvetica, 'Apple Color Emoji', Arial, sans-serif, 'Segoe UI Emoji', 'Segoe UI Symbol'" font-size="20px" fill="#000000" text-anchor="start" style="white-space: pre;" direction="ltr">Need to learn</text><text x="0" y="43.333333333333336" font-family="-apple-system, BlinkMacSystemFont, 'Segoe UI', Helvetica, 'Apple Color Emoji', Arial, sans-serif, 'Segoe UI Emoji', 'Segoe UI Symbol'" font-size="20px" fill="#000000" text-anchor="start" style="white-space: pre;" direction="ltr">about the underlying</text><text x="0" y="69" font-family="-apple-system, BlinkMacSystemFont, 'Segoe UI', Helvetica, 'Apple Color Emoji', Arial, sans-serif, 'Segoe UI Emoji', 'Segoe UI Symbol'" font-size="20px" fill="#000000" text-anchor="start" style="white-space: pre;" direction="ltr">components</text></g></svg>