<svg version="1.1" xmlns="http://www.w3.org/2000/svg" viewBox="0 0 685.6503934092096 454.7311698778768" width="1371.3007868184193" height="909.4623397557536">
  <!-- svg-source:excalidraw -->
  
  <defs>
    <style>
      @font-face {
        font-family: "Virgil";
        src: url("https://excalidraw.com/Virgil.woff2");
      }
      @font-face {
        font-family: "Cascadia";
        src: url("https://excalidraw.com/Cascadia.woff2");
      }
    </style>
  </defs>
  <g transform="translate(10.1503934092093 10.731169877876596) rotate(359.31793960682734 61.5 13)"><text x="0" y="18" font-family="-apple-system, BlinkMacSystemFont, 'Segoe UI', Helvetica, 'Apple Color Emoji', Arial, sans-serif, 'Segoe UI Emoji', 'Segoe UI Symbol'" font-size="20px" fill="#000000" text-anchor="start" style="white-space: pre;" direction="ltr">Ease of use</text></g><g transform="translate(524.1503934092096 418.7311698778768) rotate(0 61 13)"><text x="0" y="18" font-family="-apple-system, BlinkMacSystemFont, 'Segoe UI', Helvetica, 'Apple Color Emoji', Arial, sans-serif, 'Segoe UI Emoji', 'Segoe UI Symbol'" font-size="20px" fill="#000000" text-anchor="start" style="white-space: pre;" direction="ltr">Functionality</text></g><g stroke-linecap="round"><g transform="translate(53.77906993596048 436.8152001228268) rotate(359.34630348216996 2.1619740791484787 -195.37633343059866)"><path d="M-1.2 0.16 C-0.4 -65.01, 4.5 -325.71, 5.52 -390.92 M0.38 -0.8 C1 -65.78, 4.27 -324.54, 4.91 -389.37" stroke="#000000" stroke-width="2" fill="none"></path></g><g transform="translate(53.77906993596048 436.8152001228268) rotate(359.34630348216996 2.1619740791484787 -195.37633343059866)"><path d="M15.12 -360 C11.21 -371.35, 7.34 -380.53, 3.33 -388 M15.57 -360.1 C12.46 -367.3, 10.56 -373.29, 4.9 -388.88" stroke="#000000" stroke-width="2" fill="none"></path></g><g transform="translate(53.77906993596048 436.8152001228268) rotate(359.34630348216996 2.1619740791484787 -195.37633343059866)"><path d="M-5.4 -360.24 C-1.84 -371.3, 1.75 -380.39, 3.33 -388 M-4.95 -360.33 C-3.87 -367.34, -1.59 -373.28, 4.9 -388.88" stroke="#000000" stroke-width="2" fill="none"></path></g></g><g stroke-linecap="round"><g transform="translate(56.15039340920964 438.7311698778768) rotate(0 228.7034456472844 -0.5212082483619724)"><path d="M-0.89 -0.93 C75.3 -0.91, 381.85 -0.28, 458.3 -0.42 M0.85 1.2 C76.8 0.91, 381.49 -1.9, 457.5 -2.24" stroke="#000000" stroke-width="2" fill="none"></path></g><g transform="translate(56.15039340920964 438.7311698778768) rotate(0 228.7034456472844 -0.5212082483619724)"><path d="M427.84 8.72 C441.58 3.96, 450.54 -0.41, 458.89 -1.05 M428.58 7.28 C438.68 4.39, 447.78 1.85, 457.61 -2.49" stroke="#000000" stroke-width="2" fill="none"></path></g><g transform="translate(56.15039340920964 438.7311698778768) rotate(0 228.7034456472844 -0.5212082483619724)"><path d="M427.69 -11.81 C441.4 -8.4, 450.42 -4.62, 458.89 -1.05 M428.43 -13.24 C438.64 -9.48, 447.79 -5.37, 457.61 -2.49" stroke="#000000" stroke-width="2" fill="none"></path></g></g><g transform="translate(58.15039340920964 111.73116987787682) rotate(0 142 19.5)" stroke="none" fill="#000000"><path d="M 1.10,-2.20 Q 1.10,-2.20 1.70,-1.96 2.29,-1.72 3.42,-1.81 4.56,-1.89 5.95,-1.99 7.35,-2.08 9.16,-1.27 10.97,-0.47 11.94,-0.91 12.92,-1.35 14.24,-1.40 15.56,-1.45 16.67,-1.48 17.78,-1.51 19.15,-1.54 20.52,-1.56 21.66,-1.59 22.81,-1.61 24.17,-1.64 25.54,-1.66 27.92,-0.11 30.30,1.43 29.35,0.72 28.40,0.02 29.96,0.27 31.51,0.53 32.66,0.38 33.80,0.22 35.49,1.04 37.18,1.86 38.37,1.52 39.56,1.19 40.68,1.18 41.80,1.18 43.08,1.18 44.35,1.18 45.81,1.19 47.26,1.20 48.47,1.21 49.68,1.22 51.32,1.24 52.97,1.26 54.21,1.26 55.46,1.25 56.61,1.25 57.76,1.24 59.03,1.24 60.29,1.25 61.74,1.26 63.19,1.26 64.33,1.26 65.47,1.25 66.87,1.26 68.27,1.26 69.78,1.26 71.29,1.26 72.77,1.27 74.26,1.27 75.35,1.27 76.44,1.27 77.91,1.28 79.37,1.29 80.86,1.29 82.34,1.28 83.53,1.28 84.72,1.27 86.08,1.27 87.45,1.26 89.08,1.94 90.72,2.61 92.20,2.91 93.69,3.21 95.11,3.27 96.54,3.34 97.82,3.84 99.09,4.34 100.44,4.35 101.79,4.36 103.07,4.91 104.36,5.45 105.85,5.36 107.34,5.27 108.99,5.92 110.65,6.58 112.03,7.02 113.41,7.46 115.57,8.04 117.73,8.62 119.42,9.25 121.10,9.89 122.22,9.58 123.33,9.27 124.83,9.27 126.34,9.27 127.99,9.93 129.64,10.58 131.05,10.42 132.46,10.25 133.61,10.25 134.76,10.24 136.06,10.24 137.35,10.24 138.82,10.24 140.29,10.24 142.30,10.82 144.31,11.39 145.39,11.32 146.47,11.24 147.88,11.24 149.30,11.24 150.37,11.24 151.44,11.24 153.42,11.84 155.40,12.43 156.56,12.34 157.71,12.24 159.01,12.24 160.30,12.24 162.09,12.96 163.87,13.68 165.60,14.01 167.32,14.34 168.54,14.28 169.75,14.22 171.75,14.90 173.74,15.58 175.11,15.39 176.49,15.20 177.65,15.20 178.81,15.19 181.27,16.38 183.73,17.57 184.55,16.87 185.37,16.18 186.45,16.17 187.54,16.17 189.69,16.57 191.84,16.98 192.96,17.08 194.08,17.19 195.20,17.20 196.32,17.21 197.99,17.87 199.67,18.53 200.73,18.36 201.80,18.20 203.59,18.79 205.38,19.38 206.86,19.30 208.34,19.21 210.06,19.90 211.78,20.59 213.56,20.96 215.34,21.33 217.47,21.61 219.61,21.89 220.51,22.50 221.41,23.11 222.48,22.65 223.55,22.19 225.40,23.03 227.24,23.86 228.42,23.99 229.61,24.12 231.18,24.85 232.75,25.58 233.70,26.57 234.64,27.57 235.95,28.28 237.25,28.99 236.21,28.09 235.17,27.18 236.36,27.18 237.56,27.19 238.68,27.18 239.81,27.17 241.73,27.85 243.65,28.53 244.48,29.28 245.32,30.03 244.08,29.08 242.84,28.14 244.20,28.15 245.55,28.15 247.73,29.43 249.90,30.71 250.73,29.92 251.56,29.14 252.69,29.13 253.81,29.13 254.89,29.13 255.96,29.12 257.26,29.12 258.56,29.12 259.69,29.12 260.81,29.12 261.88,29.11 262.96,29.11 264.26,29.11 265.56,29.11 267.74,30.41 269.93,31.70 268.86,31.21 267.79,30.72 268.85,30.41 269.91,30.11 271.24,30.11 272.57,30.11 273.69,30.10 274.81,30.10 275.89,30.10 276.96,30.10 279.91,32.02 282.86,33.95 281.57,32.81 280.27,31.68 281.79,32.25 283.31,32.81 284.40,34.11 285.49,35.41 285.69,36.49 285.89,37.57 286.86,37.93 287.82,38.30 287.83,38.93 287.84,39.56 287.65,40.16 287.46,40.76 287.09,41.26 286.72,41.77 286.20,42.13 285.68,42.49 285.08,42.67 284.48,42.85 283.85,42.83 283.22,42.80 282.63,42.58 282.04,42.36 281.56,41.96 281.07,41.56 280.74,41.02 280.40,40.49 280.26,39.88 280.11,39.26 280.17,38.64 280.23,38.01 280.48,37.43 280.74,36.86 281.16,36.39 281.59,35.93 282.14,35.63 282.69,35.32 283.31,35.21 283.93,35.10 284.55,35.19 285.18,35.28 285.74,35.57 286.30,35.85 286.74,36.30 287.18,36.75 287.45,37.32 287.73,37.89 287.80,38.51 287.88,39.14 287.76,39.75 287.63,40.37 287.32,40.92 287.00,41.46 286.53,41.88 286.05,42.29 285.47,42.53 284.89,42.78 284.26,42.82 283.63,42.86 283.03,42.71 282.42,42.55 281.89,42.20 281.36,41.86 280.97,41.36 280.58,40.87 280.37,40.27 280.16,39.68 280.16,39.68 280.16,39.68 279.25,38.13 278.34,36.58 279.95,38.23 281.56,39.88 279.64,38.92 277.71,37.95 276.41,36.00 275.12,34.04 276.46,35.97 277.81,37.89 276.69,37.89 275.57,37.89 274.27,37.89 272.96,37.89 271.89,37.88 270.81,37.88 269.68,37.88 268.55,37.88 267.38,37.56 266.20,37.24 264.94,35.77 263.69,34.29 264.25,35.58 264.81,36.88 263.68,36.88 262.56,36.88 261.26,36.87 259.96,36.87 258.89,36.87 257.81,36.87 256.67,36.87 255.54,36.86 254.25,36.86 252.96,36.86 251.89,36.86 250.81,36.85 249.66,36.84 248.50,36.84 247.32,36.62 246.13,36.39 244.92,34.84 243.72,33.28 244.12,34.56 244.53,35.83 243.40,35.81 242.27,35.79 241.22,35.23 240.16,34.67 239.23,33.89 238.30,33.11 239.63,33.97 240.96,34.83 239.89,34.82 238.81,34.81 237.67,34.81 236.52,34.80 235.21,34.73 233.90,34.66 232.10,33.55 230.30,32.44 228.69,31.86 227.08,31.28 226.00,30.98 224.92,30.68 223.72,30.24 222.53,29.79 221.38,29.77 220.23,29.74 218.77,29.26 217.31,28.78 216.10,28.73 214.90,28.69 213.71,28.24 212.53,27.79 211.40,27.77 210.26,27.74 209.30,27.26 208.34,26.78 206.87,26.77 205.41,26.77 203.77,26.23 202.14,25.69 200.91,25.73 199.68,25.78 198.51,25.62 197.34,25.46 195.93,25.12 194.53,24.78 193.21,24.75 191.90,24.71 190.69,24.27 189.49,23.83 188.15,23.82 186.81,23.82 185.67,23.82 184.53,23.82 183.38,23.79 182.24,23.77 181.19,23.57 180.15,23.37 178.99,21.90 177.83,20.42 179.16,21.61 180.49,22.81 179.23,22.80 177.96,22.80 176.88,22.79 175.79,22.78 174.67,22.77 173.54,22.75 172.44,22.60 171.33,22.45 169.85,22.10 168.36,21.76 166.80,21.57 165.25,21.38 164.24,21.05 163.23,20.72 161.96,20.24 160.70,19.76 159.61,19.76 158.51,19.76 157.41,19.75 156.31,19.75 155.12,19.69 153.93,19.64 152.10,19.19 150.27,18.74 148.87,18.75 147.47,18.75 146.36,18.74 145.26,18.73 143.81,18.58 142.36,18.44 141.33,18.10 140.29,17.75 139.01,17.75 137.72,17.76 136.60,17.75 135.47,17.75 134.41,17.74 133.34,17.74 131.88,17.73 130.43,17.73 129.09,17.62 127.74,17.52 126.59,17.12 125.44,16.72 124.37,16.72 123.30,16.71 122.11,16.69 120.91,16.67 119.61,16.52 118.30,16.37 117.27,16.02 116.23,15.67 115.22,15.19 114.22,14.71 113.06,14.66 111.91,14.61 110.13,14.01 108.35,13.41 106.78,13.06 105.22,12.70 104.07,12.65 102.93,12.61 101.08,12.14 99.22,11.67 97.62,11.16 96.01,10.65 94.63,10.67 93.25,10.68 91.57,10.15 89.89,9.63 88.67,9.18 87.45,8.73 86.08,8.72 84.72,8.72 83.53,8.71 82.34,8.71 80.86,8.70 79.37,8.70 77.91,8.71 76.44,8.72 75.35,8.72 74.26,8.72 72.77,8.72 71.29,8.73 69.78,8.73 68.27,8.73 66.87,8.73 65.47,8.74 64.33,8.73 63.19,8.73 61.94,8.74 60.70,8.75 59.58,8.75 58.47,8.75 57.41,8.74 56.34,8.74 54.95,8.74 53.56,8.73 52.29,8.74 51.01,8.75 49.64,8.76 48.26,8.78 46.78,8.79 45.30,8.80 44.05,8.81 42.80,8.82 41.65,8.81 40.49,8.81 39.20,8.80 37.92,8.80 36.80,8.78 35.69,8.77 34.74,8.27 33.80,7.77 32.61,7.75 31.42,7.73 29.98,7.22 28.53,6.71 27.05,6.16 25.56,5.61 24.54,4.08 23.53,2.56 25.17,4.12 26.81,5.68 25.68,5.67 24.56,5.65 23.23,5.62 21.90,5.60 20.81,5.57 19.72,5.55 18.60,5.53 17.48,5.50 16.14,5.46 14.80,5.43 13.68,5.38 12.55,5.33 11.41,5.27 10.27,5.20 8.81,4.64 7.35,4.08 5.95,3.99 4.55,3.89 3.44,3.78 2.32,3.67 1.16,3.27 0.00,2.87 -0.55,2.53 -1.10,2.20 -1.35,2.04 -1.59,1.87 -1.80,1.65 -2.00,1.44 -2.14,1.18 -2.28,0.91 -2.36,0.63 -2.44,0.34 -2.44,0.04 -2.45,-0.24 -2.38,-0.53 -2.32,-0.82 -2.18,-1.09 -2.05,-1.36 -1.86,-1.58 -1.67,-1.81 -1.43,-1.98 -1.18,-2.16 -0.91,-2.27 -0.63,-2.38 -0.34,-2.42 -0.04,-2.46 0.24,-2.43 0.54,-2.40 0.82,-2.30 1.10,-2.20 1.10,-2.20 L 1.10,-2.20 Z"></path></g><g transform="translate(345.15039340920964 150.73116987787682) rotate(0 1.5 26)" stroke="none" fill="#000000"><path d="M 2.60,0 Q 2.60,0 2.62,1.15 2.64,2.3 3.10,3.44 3.56,4.59 3.74,5.86 3.93,7.14 4.55,8.79 5.18,10.44 5.24,11.61 5.31,12.78 5.35,13.84 5.39,14.90 5.91,16.09 6.43,17.29 6.48,18.43 6.54,19.56 6.56,20.69 6.59,21.81 6.62,22.89 6.64,23.96 5.42,26.37 4.20,28.78 4.95,27.73 5.71,26.69 4.13,29.51 2.56,32.34 3.28,31.38 4.00,30.41 4.39,31.49 4.77,32.56 4.78,33.69 4.79,34.81 4.11,36.22 3.43,37.63 2.69,38.46 1.95,39.28 2.88,38.22 3.82,37.16 3.82,38.36 3.81,39.56 3.82,40.69 3.83,41.81 3.83,42.89 3.84,43.96 3.84,45.26 3.84,46.56 2.96,45.41 2.08,44.27 2.89,45.22 3.69,46.18 4.25,47.22 4.81,48.27 3.41,48.20 2.02,48.13 2.63,48.24 3.25,48.34 3.80,48.64 4.35,48.93 4.78,49.39 5.21,49.85 5.46,50.42 5.72,50.98 5.79,51.61 5.85,52.23 5.71,52.84 5.57,53.45 5.25,53.98 4.92,54.51 4.45,54.92 3.97,55.32 3.38,55.54 2.80,55.77 2.18,55.80 1.55,55.83 0.95,55.66 0.35,55.49 -0.15,55.14 -0.67,54.78 -1.04,54.28 -1.42,53.78 -1.61,53.19 -1.81,52.60 -1.81,51.97 -1.80,51.35 -1.60,50.76 -1.40,50.16 -1.02,49.67 -0.63,49.17 -0.11,48.83 0.39,48.48 1.00,48.32 1.60,48.15 2.22,48.19 2.85,48.23 3.43,48.46 4.01,48.70 4.48,49.11 4.95,49.51 5.27,50.05 5.59,50.59 5.72,51.20 5.85,51.81 5.78,52.43 5.71,53.05 5.44,53.62 5.18,54.18 4.75,54.63 4.31,55.08 3.76,55.37 3.21,55.66 2.59,55.76 1.97,55.86 1.97,55.86 1.97,55.86 -0.44,52.35 -2.87,48.84 -1.90,50.10 -0.93,51.36 -1.68,50.54 -2.42,49.72 -3.13,47.64 -3.84,45.56 -3.84,44.26 -3.83,42.96 -3.83,41.89 -3.82,40.81 -3.82,39.68 -3.81,38.55 -3.74,37.23 -3.67,35.91 -2.38,34.12 -1.10,32.33 -1.94,33.65 -2.79,34.96 -2.78,33.89 -2.77,32.81 -2.76,31.65 -2.74,30.49 -2.19,29.02 -1.64,27.55 -0.10,26.52 1.43,25.49 -0.13,26.52 -1.71,27.55 -1.36,26.34 -1.01,25.12 0.38,23.99 1.79,22.85 0.56,24.21 -0.67,25.56 -0.64,24.26 -0.62,22.96 -0.59,21.89 -0.57,20.81 -0.32,19.75 -0.06,18.69 -0.65,17.50 -1.23,16.31 -1.28,14.89 -1.33,13.48 -0.80,12.26 -0.27,11.04 -1.16,9.76 -2.05,8.47 -1.81,7.36 -1.58,6.24 -2.11,4.27 -2.64,2.3 -2.62,1.15 -2.60,0 -2.56,-0.31 -2.52,-0.62 -2.41,-0.91 -2.30,-1.20 -2.12,-1.46 -1.94,-1.72 -1.71,-1.93 -1.47,-2.14 -1.20,-2.28 -0.92,-2.43 -0.61,-2.50 -0.31,-2.58 0.00,-2.58 0.31,-2.58 0.61,-2.50 0.92,-2.43 1.20,-2.28 1.47,-2.14 1.71,-1.93 1.94,-1.72 2.12,-1.46 2.30,-1.20 2.41,-0.91 2.52,-0.62 2.56,-0.31 2.60,0.00 2.60,0.00 L 2.60,0 Z"></path></g><g transform="translate(346.15039340920964 198.73116987787682) rotate(0 89 101)" stroke="none" fill="#000000"><path d="M 2.48,0 Q 2.48,0 2.52,0.57 2.57,1.15 2.67,2.29 2.77,3.43 2.86,4.50 2.95,5.56 3.03,6.69 3.12,7.81 3.18,8.89 3.24,9.96 1.73,12.06 0.21,14.15 1.13,12.87 2.05,11.58 2.25,12.70 2.45,13.81 2.48,14.89 2.52,15.96 2.55,17.26 2.58,18.56 3.11,19.56 3.63,20.57 3.65,21.69 3.67,22.81 2.11,21.67 0.56,20.52 2.42,22.00 4.29,23.47 2.82,22.48 1.35,21.48 3.40,23.06 5.46,24.64 3.91,23.55 2.35,22.45 4.42,24.04 6.48,25.63 5.07,24.60 3.66,23.56 5.58,25.13 7.50,26.70 6.77,25.52 6.05,24.34 7.40,24.42 8.75,24.50 9.99,25.18 11.24,25.86 13.44,26.20 15.65,26.53 16.48,27.28 17.32,28.03 16.08,27.08 14.84,26.14 17.81,28.01 20.77,29.89 19.19,28.65 17.61,27.42 20.20,29.15 22.78,30.89 21.53,29.81 20.28,28.73 21.42,28.43 22.56,28.13 24.14,28.83 25.71,29.54 26.54,30.29 27.36,31.04 26.03,30.08 24.69,29.11 25.80,29.12 26.92,29.12 29.81,30.93 32.71,32.74 31.88,31.49 31.06,30.24 33.47,32.11 35.87,33.99 35.16,33.19 34.44,32.40 35.50,31.75 36.57,31.11 37.69,31.11 38.81,31.11 40.53,31.94 42.26,32.78 43.78,33.30 45.30,33.82 46.90,35.12 48.49,36.42 47.01,35.45 45.53,34.47 46.67,34.29 47.81,34.11 49.89,35.42 51.96,36.73 50.93,36.24 49.89,35.75 52.37,37.35 54.86,38.95 53.56,37.82 52.27,36.68 53.42,36.39 54.57,36.10 55.69,36.10 56.81,36.10 59.16,37.76 61.50,39.42 60.02,38.44 58.53,37.46 60.62,39.11 62.70,40.76 61.00,39.50 59.30,38.25 61.53,40.06 63.77,41.87 62.93,40.55 62.09,39.23 63.80,40.82 65.50,42.42 63.91,41.40 62.31,40.38 63.06,40.24 63.81,40.10 64.28,40.15 64.75,40.21 65.19,40.38 65.63,40.54 66.01,40.81 66.40,41.08 66.71,41.43 67.02,41.78 67.24,42.20 67.46,42.61 67.57,43.07 67.68,43.53 67.68,44.00 67.68,44.46 67.57,44.92 67.46,45.38 67.24,45.79 67.02,46.21 66.71,46.56 66.40,46.91 66.01,47.18 65.63,47.45 65.19,47.61 64.75,47.78 64.28,47.84 63.81,47.89 63.00,47.89 62.18,47.89 61.71,47.84 61.24,47.78 60.80,47.61 60.37,47.45 59.98,47.18 59.59,46.91 59.28,46.56 58.97,46.21 58.75,45.79 58.53,45.38 58.42,44.92 58.31,44.46 58.31,43.99 58.31,43.53 58.42,43.07 58.53,42.61 58.75,42.20 58.97,41.78 59.28,41.43 59.59,41.08 59.98,40.81 60.37,40.54 60.80,40.38 61.24,40.21 61.71,40.15 62.18,40.10 63.36,40.10 64.54,40.10 66.63,41.91 68.72,43.73 67.54,42.74 66.35,41.76 68.54,43.25 70.73,44.74 69.05,43.53 67.37,42.31 69.49,43.97 71.61,45.62 71.75,46.72 71.89,47.81 70.23,46.07 68.57,44.33 69.63,44.86 70.68,45.40 71.55,46.24 72.41,47.07 72.65,48.29 72.88,49.50 72.88,50.64 72.89,51.78 73.36,53.01 73.83,54.23 73.85,55.39 73.87,56.55 73.87,57.68 73.87,58.81 73.87,60.17 73.87,61.53 73.88,62.67 73.88,63.80 73.87,65.05 73.86,66.31 73.86,67.42 73.86,68.53 73.86,69.67 73.87,70.81 73.87,72.17 73.87,73.53 73.87,74.67 73.87,75.81 73.85,76.88 73.84,77.96 73.82,79.08 73.80,80.20 73.79,81.73 73.78,83.25 73.77,84.34 73.77,85.44 73.78,86.62 73.79,87.80 73.79,89.08 73.79,90.35 73.79,91.56 73.80,92.77 73.80,94.12 73.80,95.48 73.80,96.60 73.80,97.72 73.80,99.10 73.81,100.49 73.81,101.65 73.82,102.81 73.82,103.88 73.83,104.96 73.83,106.26 73.84,107.56 73.84,108.69 73.85,109.81 73.85,110.89 73.86,111.96 73.86,113.26 73.86,114.56 72.56,114.12 71.25,113.68 72.77,114.99 74.29,116.30 73.69,115.27 73.08,114.25 74.01,115.41 74.93,116.57 75.40,117.56 75.87,118.55 74.23,116.96 72.59,115.37 74.45,116.10 76.31,116.83 77.90,118.13 79.49,119.42 78.16,118.51 76.83,117.60 77.87,117.35 78.92,117.11 80.60,117.96 82.29,118.81 83.61,119.77 84.94,120.72 86.15,121.87 87.37,123.02 86.29,122.06 85.22,121.10 86.59,122.43 87.96,123.76 87.27,122.94 86.58,122.12 88.41,122.95 90.25,123.79 91.39,123.45 92.54,123.12 93.67,123.11 94.81,123.11 97.38,124.42 99.95,125.73 98.92,125.24 97.89,124.75 99.91,125.72 101.93,126.70 100.92,126.23 99.91,125.76 101.65,127.03 103.39,128.30 102.43,127.59 101.47,126.87 103.21,127.80 104.96,128.73 104.09,127.91 103.23,127.09 105.41,128.84 107.59,130.60 106.15,129.53 104.70,128.47 107.26,130.18 109.81,131.88 110.32,133.07 110.84,134.26 109.04,133.23 107.25,132.21 109.06,133.42 110.87,134.63 110.05,133.86 109.23,133.09 111.86,134.76 114.50,136.42 113.48,135.65 112.46,134.87 114.48,136.14 116.50,137.42 115.77,136.32 115.03,135.22 117.26,136.82 119.49,138.41 119.69,139.49 119.88,140.57 119.88,141.68 119.88,142.80 120.36,144.03 120.84,145.26 120.86,146.41 120.88,147.55 120.87,148.93 120.86,150.31 121.35,151.84 121.83,153.37 121.84,154.58 121.85,155.78 121.85,156.87 121.85,157.96 121.85,159.26 121.86,160.56 121.86,161.69 121.86,162.81 121.87,163.89 121.87,164.96 121.87,166.26 121.87,167.56 121.87,168.68 121.87,169.80 121.87,171.17 121.87,172.54 121.87,173.67 121.88,174.80 121.87,176.09 121.87,177.39 121.86,178.87 121.86,180.35 122.19,181.84 122.53,183.34 122.68,184.51 122.83,185.68 122.00,184.50 121.18,183.31 122.44,185.11 123.71,186.90 124.34,187.86 124.98,188.82 125.38,190.03 125.79,191.24 124.66,190.10 123.53,188.95 124.82,190.00 126.11,191.05 125.38,190.09 124.65,189.14 126.61,190.88 128.56,192.62 127.81,191.44 127.05,190.27 128.64,191.03 130.22,191.80 131.39,191.47 132.55,191.15 134.44,191.71 136.33,192.27 137.41,192.22 138.49,192.16 139.93,192.16 141.37,192.16 142.45,192.16 143.54,192.15 145.69,193.41 147.85,194.66 148.71,193.90 149.57,193.14 150.87,193.16 152.18,193.18 153.27,193.18 154.36,193.18 155.57,193.18 156.77,193.17 157.84,193.17 158.92,193.17 160.24,193.16 161.56,193.16 162.68,193.15 163.80,193.15 164.88,193.15 165.96,193.15 167.26,193.14 168.56,193.14 170.42,193.98 172.27,194.83 174.98,196.28 177.69,197.74 175.91,196.50 174.13,195.26 176.04,196.50 177.94,197.74 176.83,197.22 175.71,196.70 177.83,197.72 179.95,198.74 181.38,200.02 182.81,201.30 182.82,201.93 182.83,202.56 182.64,203.15 182.45,203.75 182.08,204.26 181.71,204.76 181.19,205.12 180.68,205.48 180.08,205.66 179.48,205.84 178.85,205.82 178.23,205.79 177.64,205.57 177.05,205.35 176.57,204.95 176.09,204.55 175.75,204.02 175.42,203.49 175.28,202.88 175.13,202.27 175.19,201.65 175.24,201.02 175.50,200.45 175.75,199.88 176.17,199.41 176.60,198.95 177.15,198.65 177.70,198.35 178.31,198.23 178.93,198.12 179.55,198.21 180.17,198.30 180.73,198.59 181.29,198.87 181.73,199.32 182.16,199.77 182.44,200.33 182.71,200.90 182.79,201.52 182.87,202.14 182.74,202.75 182.62,203.37 182.30,203.91 181.99,204.45 181.52,204.87 181.05,205.28 180.47,205.52 179.89,205.76 179.27,205.81 178.64,205.85 178.03,205.70 177.43,205.54 176.90,205.20 176.38,204.85 175.99,204.36 175.60,203.87 175.39,203.28 175.18,202.69 175.18,202.69 175.18,202.69 174.43,201.97 173.68,201.25 175.12,202.56 176.57,203.87 175.42,203.57 174.28,203.28 172.98,201.76 171.69,200.25 172.77,201.49 173.86,202.73 172.04,200.49 170.23,198.25 171.38,200.05 172.54,201.85 171.40,201.83 170.26,201.81 168.91,201.33 167.56,200.85 166.26,200.84 164.96,200.84 163.87,200.84 162.78,200.84 161.67,200.83 160.56,200.83 159.23,200.82 157.90,200.82 156.83,200.82 155.77,200.81 154.64,200.81 153.51,200.82 152.29,200.82 151.07,200.83 149.81,200.84 148.55,200.84 147.40,200.82 146.24,200.80 145.19,200.60 144.13,200.39 142.94,198.86 141.75,197.33 142.64,198.58 143.54,199.84 142.45,199.83 141.37,199.83 139.91,199.83 138.45,199.83 137.18,199.78 135.90,199.73 134.35,199.29 132.81,198.85 131.66,198.84 130.52,198.84 129.36,198.80 128.20,198.77 127.22,198.28 126.24,197.80 125.16,197.58 124.08,197.36 123.29,196.53 122.51,195.69 121.93,194.53 121.36,193.37 122.89,195.10 124.42,196.82 123.25,196.59 122.07,196.35 121.25,195.50 120.43,194.65 119.55,193.83 118.67,193.02 118.09,191.84 117.51,190.65 116.82,189.41 116.13,188.17 117.05,189.23 117.96,190.28 117.20,189.42 116.45,188.56 115.89,186.98 115.33,185.40 114.79,184.11 114.24,182.82 114.19,181.58 114.13,180.35 114.13,178.87 114.12,177.39 114.12,176.17 114.11,174.96 114.11,173.88 114.12,172.80 114.12,171.64 114.12,170.49 114.12,169.22 114.12,167.96 114.12,166.88 114.12,165.81 114.12,164.67 114.13,163.54 114.13,162.25 114.13,160.96 114.13,159.88 114.14,158.81 114.14,157.64 114.14,156.48 114.33,155.14 114.52,153.81 113.82,151.60 113.12,149.38 113.42,148.28 113.72,147.18 113.05,145.90 112.38,144.62 112.24,143.22 112.10,141.81 112.22,140.69 112.34,139.58 113.38,141.22 114.42,142.86 113.25,142.64 112.08,142.41 111.24,141.54 110.40,140.68 109.87,139.63 109.34,138.57 110.95,140.23 112.57,141.88 111.03,141.32 109.50,140.76 108.42,139.16 107.34,137.57 108.95,139.22 110.57,140.88 109.35,140.84 108.14,140.79 107.17,140.17 106.20,139.56 105.48,138.45 104.76,137.34 105.75,138.53 106.74,139.72 105.27,138.00 103.81,136.29 102.98,134.20 102.15,132.11 103.86,133.99 105.56,135.88 104.42,135.62 103.28,135.37 101.80,133.38 100.32,131.39 101.23,133.09 102.14,134.79 101.17,134.18 100.20,133.56 99.44,132.41 98.67,131.26 100.12,132.57 101.57,133.88 100.03,133.32 98.50,132.76 97.47,131.22 96.45,129.68 97.26,130.92 98.07,132.17 96.88,130.73 95.69,129.29 97.12,130.59 98.55,131.88 97.32,131.53 96.08,131.17 94.88,129.72 93.67,128.26 94.62,129.57 95.56,130.88 94.26,130.88 92.96,130.88 91.89,130.87 90.81,130.87 89.75,130.87 88.69,130.86 87.62,130.36 86.56,129.87 85.31,129.63 84.07,129.39 82.97,127.79 81.86,126.20 82.86,127.46 83.85,128.72 82.32,127.35 80.79,125.98 79.74,124.63 78.68,123.27 79.60,124.57 80.51,125.87 79.04,125.37 77.57,124.87 76.36,124.56 75.15,124.24 73.75,122.41 72.35,120.57 73.39,122.21 74.43,123.85 72.92,123.16 71.40,122.47 70.23,120.94 69.05,119.42 69.55,120.40 70.06,121.38 69.30,120.56 68.55,119.74 68.12,118.71 67.69,117.69 68.22,118.82 68.74,119.95 67.43,117.26 66.13,114.56 66.13,113.26 66.13,111.96 66.14,110.89 66.14,109.81 66.15,108.69 66.15,107.56 66.16,106.26 66.16,104.96 66.17,103.88 66.17,102.81 66.18,101.65 66.18,100.49 66.19,99.10 66.19,97.72 66.19,96.60 66.19,95.48 66.19,94.12 66.19,92.77 66.20,91.56 66.20,90.35 66.20,89.08 66.20,87.80 66.21,86.62 66.22,85.44 66.22,84.34 66.21,83.25 66.20,81.73 66.19,80.20 66.17,79.08 66.15,77.96 66.14,76.88 66.12,75.81 66.12,74.67 66.12,73.53 66.12,72.17 66.12,70.81 66.13,69.67 66.13,68.53 66.13,67.42 66.13,66.31 66.12,65.05 66.11,63.80 66.11,62.67 66.12,61.53 66.12,60.17 66.12,58.81 66.12,57.68 66.12,56.55 66.18,55.45 66.25,54.35 65.73,52.19 65.21,50.04 66.32,50.77 67.42,51.51 65.87,48.94 64.31,46.37 65.47,47.99 66.62,49.61 64.91,47.43 63.20,45.25 64.88,47.07 66.57,48.89 65.10,48.38 63.62,47.87 62.41,46.07 61.20,44.26 62.87,46.08 64.54,47.89 63.36,47.89 62.18,47.89 61.71,47.84 61.24,47.78 60.80,47.61 60.37,47.45 59.98,47.18 59.59,46.91 59.28,46.56 58.97,46.21 58.75,45.79 58.53,45.38 58.42,44.92 58.31,44.46 58.31,44.00 58.31,43.53 58.42,43.07 58.53,42.61 58.75,42.20 58.97,41.78 59.28,41.43 59.59,41.08 59.98,40.81 60.37,40.54 60.80,40.38 61.24,40.21 61.71,40.15 62.18,40.10 63.00,40.10 63.81,40.10 64.28,40.15 64.75,40.21 65.19,40.38 65.63,40.54 66.01,40.81 66.40,41.08 66.71,41.43 67.02,41.78 67.24,42.20 67.46,42.61 67.57,43.07 67.68,43.53 67.68,43.99 67.68,44.46 67.57,44.92 67.46,45.38 67.24,45.79 67.02,46.21 66.71,46.56 66.40,46.91 66.01,47.18 65.63,47.45 65.19,47.61 64.75,47.78 64.28,47.84 63.81,47.89 62.75,47.75 61.68,47.61 60.01,45.59 58.33,43.57 59.95,45.23 61.57,46.89 60.31,46.64 59.05,46.40 58.29,45.58 57.54,44.75 56.88,43.44 56.22,42.12 57.46,43.90 58.69,45.68 56.98,43.45 55.26,41.23 56.36,42.85 57.45,44.46 55.89,42.52 54.33,40.57 55.65,42.23 56.96,43.89 55.89,43.89 54.81,43.89 53.69,43.89 52.56,43.88 51.14,43.41 49.72,42.95 48.42,40.99 47.12,39.04 48.84,40.96 50.56,42.88 49.32,42.53 48.09,42.18 46.88,40.72 45.67,39.26 46.11,40.57 46.55,41.88 45.50,41.67 44.46,41.45 42.90,39.51 41.34,37.57 42.45,39.22 43.57,40.87 41.91,40.35 40.26,39.83 39.11,39.36 37.96,38.88 36.89,38.88 35.81,38.88 34.69,38.88 33.56,38.88 32.31,38.63 31.05,38.38 30.30,37.56 29.55,36.74 28.83,35.37 28.12,34.00 29.33,35.94 30.54,37.87 29.30,37.63 28.07,37.39 27.28,36.55 26.49,35.71 25.85,34.48 25.22,33.25 27.01,35.06 28.81,36.87 27.69,36.87 26.57,36.87 25.50,36.86 24.44,36.85 23.42,36.34 22.40,35.84 21.33,34.97 20.26,34.10 21.54,34.98 22.81,35.86 21.68,35.86 20.55,35.85 19.13,35.38 17.70,34.90 16.44,33.00 15.18,31.10 16.87,32.98 18.57,34.85 17.47,34.63 16.38,34.42 14.78,32.26 13.19,30.10 14.88,31.97 16.57,33.84 15.42,33.81 14.27,33.79 13.22,33.23 12.16,32.67 11.23,31.89 10.30,31.11 11.11,31.97 11.92,32.82 10.80,32.81 9.69,32.80 8.75,32.30 7.81,31.80 6.69,31.79 5.56,31.78 4.33,31.54 3.09,31.29 2.35,30.49 1.62,29.69 1.05,28.49 0.49,27.29 1.41,28.78 2.33,30.28 0.89,28.31 -0.54,26.35 0.54,27.91 1.64,29.47 0.05,27.41 -1.52,25.35 -0.44,26.90 0.64,28.45 -0.85,26.48 -2.35,24.51 -1.45,25.91 -0.56,27.31 -1.76,24.71 -2.97,22.12 -3.63,20.93 -4.29,19.74 -4.42,18.35 -4.55,16.96 -4.51,15.89 -4.48,14.81 -4.44,13.67 -4.39,12.52 -4.15,11.46 -3.90,10.40 -2.05,9.09 -0.21,7.77 -1.73,8.87 -3.24,9.96 -3.18,8.89 -3.12,7.81 -3.03,6.69 -2.95,5.56 -2.86,4.50 -2.77,3.43 -2.67,2.29 -2.57,1.15 -2.52,0.57 -2.48,0 -2.44,-0.29 -2.40,-0.59 -2.30,-0.87 -2.19,-1.15 -2.02,-1.39 -1.85,-1.64 -1.63,-1.84 -1.40,-2.04 -1.14,-2.18 -0.87,-2.31 -0.58,-2.39 -0.29,-2.46 0.00,-2.46 0.29,-2.46 0.58,-2.39 0.87,-2.31 1.14,-2.18 1.40,-2.04 1.63,-1.84 1.85,-1.64 2.02,-1.39 2.19,-1.15 2.30,-0.87 2.40,-0.59 2.44,-0.29 2.48,0.00 2.48,0.00 L 2.48,0 Z"></path></g><g stroke-linecap="round" transform="translate(332.15039340920964 139.73116987787682) rotate(0 10 10)"><path d="M20 10 C20 10.58, 19.95 11.17, 19.85 11.74 C19.75 12.31, 19.59 12.88, 19.4 13.42 C19.2 13.96, 18.95 14.5, 18.66 15 C18.37 15.5, 18.03 15.98, 17.66 16.43 C17.29 16.87, 16.87 17.29, 16.43 17.66 C15.98 18.03, 15.5 18.37, 15 18.66 C14.5 18.95, 13.96 19.2, 13.42 19.4 C12.88 19.59, 12.31 19.75, 11.74 19.85 C11.17 19.95, 10.58 20, 10 20 C9.42 20, 8.83 19.95, 8.26 19.85 C7.69 19.75, 7.12 19.59, 6.58 19.4 C6.04 19.2, 5.5 18.95, 5 18.66 C4.5 18.37, 4.02 18.03, 3.57 17.66 C3.13 17.29, 2.71 16.87, 2.34 16.43 C1.97 15.98, 1.63 15.5, 1.34 15 C1.05 14.5, 0.8 13.96, 0.6 13.42 C0.41 12.88, 0.25 12.31, 0.15 11.74 C0.05 11.17, 0 10.58, 0 10 C0 9.42, 0.05 8.83, 0.15 8.26 C0.25 7.69, 0.41 7.12, 0.6 6.58 C0.8 6.04, 1.05 5.5, 1.34 5 C1.63 4.5, 1.97 4.02, 2.34 3.57 C2.71 3.13, 3.13 2.71, 3.57 2.34 C4.02 1.97, 4.5 1.63, 5 1.34 C5.5 1.05, 6.04 0.8, 6.58 0.6 C7.12 0.41, 7.69 0.25, 8.26 0.15 C8.83 0.05, 9.42 0, 10 0 C10.58 0, 11.17 0.05, 11.74 0.15 C12.31 0.25, 12.88 0.41, 13.42 0.6 C13.96 0.8, 14.5 1.05, 15 1.34 C15.5 1.63, 15.98 1.97, 16.43 2.34 C16.87 2.71, 17.29 3.13, 17.66 3.57 C18.03 4.02, 18.37 4.5, 18.66 5 C18.95 5.5, 19.2 6.04, 19.4 6.58 C19.59 7.12, 19.75 7.69, 19.85 8.26 C19.95 8.83, 19.97 9.71, 20 10 C20.03 10.29, 20.03 9.71, 20 10" stroke="none" stroke-width="0" fill="#fab005"></path><path d="M20 10 C20 10.58, 19.95 11.17, 19.85 11.74 C19.75 12.31, 19.59 12.88, 19.4 13.42 C19.2 13.96, 18.95 14.5, 18.66 15 C18.37 15.5, 18.03 15.98, 17.66 16.43 C17.29 16.87, 16.87 17.29, 16.43 17.66 C15.98 18.03, 15.5 18.37, 15 18.66 C14.5 18.95, 13.96 19.2, 13.42 19.4 C12.88 19.59, 12.31 19.75, 11.74 19.85 C11.17 19.95, 10.58 20, 10 20 C9.42 20, 8.83 19.95, 8.26 19.85 C7.69 19.75, 7.12 19.59, 6.58 19.4 C6.04 19.2, 5.5 18.95, 5 18.66 C4.5 18.37, 4.02 18.03, 3.57 17.66 C3.13 17.29, 2.71 16.87, 2.34 16.43 C1.97 15.98, 1.63 15.5, 1.34 15 C1.05 14.5, 0.8 13.96, 0.6 13.42 C0.41 12.88, 0.25 12.31, 0.15 11.74 C0.05 11.17, 0 10.58, 0 10 C0 9.42, 0.05 8.83, 0.15 8.26 C0.25 7.69, 0.41 7.12, 0.6 6.58 C0.8 6.04, 1.05 5.5, 1.34 5 C1.63 4.5, 1.97 4.02, 2.34 3.57 C2.71 3.13, 3.13 2.71, 3.57 2.34 C4.02 1.97, 4.5 1.63, 5 1.34 C5.5 1.05, 6.04 0.8, 6.58 0.6 C7.12 0.41, 7.69 0.25, 8.26 0.15 C8.83 0.05, 9.42 0, 10 0 C10.58 0, 11.17 0.05, 11.74 0.15 C12.31 0.25, 12.88 0.41, 13.42 0.6 C13.96 0.8, 14.5 1.05, 15 1.34 C15.5 1.63, 15.98 1.97, 16.43 2.34 C16.87 2.71, 17.29 3.13, 17.66 3.57 C18.03 4.02, 18.37 4.5, 18.66 5 C18.95 5.5, 19.2 6.04, 19.4 6.58 C19.59 7.12, 19.75 7.69, 19.85 8.26 C19.95 8.83, 19.97 9.71, 20 10 C20.03 10.29, 20.03 9.71, 20 10" stroke="#000000" stroke-width="1" fill="none"></path></g><g stroke-linecap="round" transform="translate(403.15039340920964 234.73116987787682) rotate(0 10 10)"><path d="M20 10 C20 10.58, 19.95 11.17, 19.85 11.74 C19.75 12.31, 19.59 12.88, 19.4 13.42 C19.2 13.96, 18.95 14.5, 18.66 15 C18.37 15.5, 18.03 15.98, 17.66 16.43 C17.29 16.87, 16.87 17.29, 16.43 17.66 C15.98 18.03, 15.5 18.37, 15 18.66 C14.5 18.95, 13.96 19.2, 13.42 19.4 C12.88 19.59, 12.31 19.75, 11.74 19.85 C11.17 19.95, 10.58 20, 10 20 C9.42 20, 8.83 19.95, 8.26 19.85 C7.69 19.75, 7.12 19.59, 6.58 19.4 C6.04 19.2, 5.5 18.95, 5 18.66 C4.5 18.37, 4.02 18.03, 3.57 17.66 C3.13 17.29, 2.71 16.87, 2.34 16.43 C1.97 15.98, 1.63 15.5, 1.34 15 C1.05 14.5, 0.8 13.96, 0.6 13.42 C0.41 12.88, 0.25 12.31, 0.15 11.74 C0.05 11.17, 0 10.58, 0 10 C0 9.42, 0.05 8.83, 0.15 8.26 C0.25 7.69, 0.41 7.12, 0.6 6.58 C0.8 6.04, 1.05 5.5, 1.34 5 C1.63 4.5, 1.97 4.02, 2.34 3.57 C2.71 3.13, 3.13 2.71, 3.57 2.34 C4.02 1.97, 4.5 1.63, 5 1.34 C5.5 1.05, 6.04 0.8, 6.58 0.6 C7.12 0.41, 7.69 0.25, 8.26 0.15 C8.83 0.05, 9.42 0, 10 0 C10.58 0, 11.17 0.05, 11.74 0.15 C12.31 0.25, 12.88 0.41, 13.42 0.6 C13.96 0.8, 14.5 1.05, 15 1.34 C15.5 1.63, 15.98 1.97, 16.43 2.34 C16.87 2.71, 17.29 3.13, 17.66 3.57 C18.03 4.02, 18.37 4.5, 18.66 5 C18.95 5.5, 19.2 6.04, 19.4 6.58 C19.59 7.12, 19.75 7.69, 19.85 8.26 C19.95 8.83, 19.97 9.71, 20 10 C20.03 10.29, 20.03 9.71, 20 10" stroke="none" stroke-width="0" fill="#fab005"></path><path d="M20 10 C20 10.58, 19.95 11.17, 19.85 11.74 C19.75 12.31, 19.59 12.88, 19.4 13.42 C19.2 13.96, 18.95 14.5, 18.66 15 C18.37 15.5, 18.03 15.98, 17.66 16.43 C17.29 16.87, 16.87 17.29, 16.43 17.66 C15.98 18.03, 15.5 18.37, 15 18.66 C14.5 18.95, 13.96 19.2, 13.42 19.4 C12.88 19.59, 12.31 19.75, 11.74 19.85 C11.17 19.95, 10.58 20, 10 20 C9.42 20, 8.83 19.95, 8.26 19.85 C7.69 19.75, 7.12 19.59, 6.58 19.4 C6.04 19.2, 5.5 18.95, 5 18.66 C4.5 18.37, 4.02 18.03, 3.57 17.66 C3.13 17.29, 2.71 16.87, 2.34 16.43 C1.97 15.98, 1.63 15.5, 1.34 15 C1.05 14.5, 0.8 13.96, 0.6 13.42 C0.41 12.88, 0.25 12.31, 0.15 11.74 C0.05 11.17, 0 10.58, 0 10 C0 9.42, 0.05 8.83, 0.15 8.26 C0.25 7.69, 0.41 7.12, 0.6 6.58 C0.8 6.04, 1.05 5.5, 1.34 5 C1.63 4.5, 1.97 4.02, 2.34 3.57 C2.71 3.13, 3.13 2.71, 3.57 2.34 C4.02 1.97, 4.5 1.63, 5 1.34 C5.5 1.05, 6.04 0.8, 6.58 0.6 C7.12 0.41, 7.69 0.25, 8.26 0.15 C8.83 0.05, 9.42 0, 10 0 C10.58 0, 11.17 0.05, 11.74 0.15 C12.31 0.25, 12.88 0.41, 13.42 0.6 C13.96 0.8, 14.5 1.05, 15 1.34 C15.5 1.63, 15.98 1.97, 16.43 2.34 C16.87 2.71, 17.29 3.13, 17.66 3.57 C18.03 4.02, 18.37 4.5, 18.66 5 C18.95 5.5, 19.2 6.04, 19.4 6.58 C19.59 7.12, 19.75 7.69, 19.85 8.26 C19.95 8.83, 19.97 9.71, 20 10 C20.03 10.29, 20.03 9.71, 20 10" stroke="#000000" stroke-width="1" fill="none"></path></g><g stroke-linecap="round" transform="translate(451.15039340920964 326.7311698778768) rotate(0 10 10)"><path d="M20 10 C20 10.58, 19.95 11.17, 19.85 11.74 C19.75 12.31, 19.59 12.88, 19.4 13.42 C19.2 13.96, 18.95 14.5, 18.66 15 C18.37 15.5, 18.03 15.98, 17.66 16.43 C17.29 16.87, 16.87 17.29, 16.43 17.66 C15.98 18.03, 15.5 18.37, 15 18.66 C14.5 18.95, 13.96 19.2, 13.42 19.4 C12.88 19.59, 12.31 19.75, 11.74 19.85 C11.17 19.95, 10.58 20, 10 20 C9.42 20, 8.83 19.95, 8.26 19.85 C7.69 19.75, 7.12 19.59, 6.58 19.4 C6.04 19.2, 5.5 18.95, 5 18.66 C4.5 18.37, 4.02 18.03, 3.57 17.66 C3.13 17.29, 2.71 16.87, 2.34 16.43 C1.97 15.98, 1.63 15.5, 1.34 15 C1.05 14.5, 0.8 13.96, 0.6 13.42 C0.41 12.88, 0.25 12.31, 0.15 11.74 C0.05 11.17, 0 10.58, 0 10 C0 9.42, 0.05 8.83, 0.15 8.26 C0.25 7.69, 0.41 7.12, 0.6 6.58 C0.8 6.04, 1.05 5.5, 1.34 5 C1.63 4.5, 1.97 4.02, 2.34 3.57 C2.71 3.13, 3.13 2.71, 3.57 2.34 C4.02 1.97, 4.5 1.63, 5 1.34 C5.5 1.05, 6.04 0.8, 6.58 0.6 C7.12 0.41, 7.69 0.25, 8.26 0.15 C8.83 0.05, 9.42 0, 10 0 C10.58 0, 11.17 0.05, 11.74 0.15 C12.31 0.25, 12.88 0.41, 13.42 0.6 C13.96 0.8, 14.5 1.05, 15 1.34 C15.5 1.63, 15.98 1.97, 16.43 2.34 C16.87 2.71, 17.29 3.13, 17.66 3.57 C18.03 4.02, 18.37 4.5, 18.66 5 C18.95 5.5, 19.2 6.04, 19.4 6.58 C19.59 7.12, 19.75 7.69, 19.85 8.26 C19.95 8.83, 19.97 9.71, 20 10 C20.03 10.29, 20.03 9.71, 20 10" stroke="none" stroke-width="0" fill="#fab005"></path><path d="M20 10 C20 10.58, 19.95 11.17, 19.85 11.74 C19.75 12.31, 19.59 12.88, 19.4 13.42 C19.2 13.96, 18.95 14.5, 18.66 15 C18.37 15.5, 18.03 15.98, 17.66 16.43 C17.29 16.87, 16.87 17.29, 16.43 17.66 C15.98 18.03, 15.5 18.37, 15 18.66 C14.5 18.95, 13.96 19.2, 13.42 19.4 C12.88 19.59, 12.31 19.75, 11.74 19.85 C11.17 19.95, 10.58 20, 10 20 C9.42 20, 8.83 19.95, 8.26 19.85 C7.69 19.75, 7.12 19.59, 6.58 19.4 C6.04 19.2, 5.5 18.95, 5 18.66 C4.5 18.37, 4.02 18.03, 3.57 17.66 C3.13 17.29, 2.71 16.87, 2.34 16.43 C1.97 15.98, 1.63 15.5, 1.34 15 C1.05 14.5, 0.8 13.96, 0.6 13.42 C0.41 12.88, 0.25 12.31, 0.15 11.74 C0.05 11.17, 0 10.58, 0 10 C0 9.42, 0.05 8.83, 0.15 8.26 C0.25 7.69, 0.41 7.12, 0.6 6.58 C0.8 6.04, 1.05 5.5, 1.34 5 C1.63 4.5, 1.97 4.02, 2.34 3.57 C2.71 3.13, 3.13 2.71, 3.57 2.34 C4.02 1.97, 4.5 1.63, 5 1.34 C5.5 1.05, 6.04 0.8, 6.58 0.6 C7.12 0.41, 7.69 0.25, 8.26 0.15 C8.83 0.05, 9.42 0, 10 0 C10.58 0, 11.17 0.05, 11.74 0.15 C12.31 0.25, 12.88 0.41, 13.42 0.6 C13.96 0.8, 14.5 1.05, 15 1.34 C15.5 1.63, 15.98 1.97, 16.43 2.34 C16.87 2.71, 17.29 3.13, 17.66 3.57 C18.03 4.02, 18.37 4.5, 18.66 5 C18.95 5.5, 19.2 6.04, 19.4 6.58 C19.59 7.12, 19.75 7.69, 19.85 8.26 C19.95 8.83, 19.97 9.71, 20 10 C20.03 10.29, 20.03 9.71, 20 10" stroke="#000000" stroke-width="1" fill="none"></path></g><g stroke-linecap="round"><g transform="translate(416.56366389074185 59.73116987787682) rotate(0 -35.206635240766104 39)"><path d="M0 0 C-1.57 3.83, -0.34 13.67, -9.41 23 C-18.48 32.33, -44.25 46.83, -54.41 56 C-64.58 65.17, -67.75 74.33, -70.41 78 M0 0 C-1.57 3.83, -0.34 13.67, -9.41 23 C-18.48 32.33, -44.25 46.83, -54.41 56 C-64.58 65.17, -67.75 74.33, -70.41 78" stroke="#000000" stroke-width="1" fill="none"></path></g><g transform="translate(416.56366389074185 59.73116987787682) rotate(0 -35.206635240766104 39)"><path d="M-67.98 64.62 C-68.77 68.96, -69.56 73.29, -70.41 78 M-67.98 64.62 C-68.89 69.62, -69.8 74.63, -70.41 78" stroke="#000000" stroke-width="1" fill="none"></path></g><g transform="translate(416.56366389074185 59.73116987787682) rotate(0 -35.206635240766104 39)"><path d="M-59.95 69.31 C-63.34 72.13, -66.73 74.95, -70.41 78 M-59.95 69.31 C-63.86 72.56, -67.78 75.81, -70.41 78" stroke="#000000" stroke-width="1" fill="none"></path></g></g><g transform="translate(351.15039340920964 20.731169877876823) rotate(0 80 13)"><text x="0" y="18" font-family="-apple-system, BlinkMacSystemFont, 'Segoe UI', Helvetica, 'Apple Color Emoji', Arial, sans-serif, 'Segoe UI Emoji', 'Segoe UI Symbol'" font-size="20px" fill="#000000" text-anchor="start" style="white-space: pre;" direction="ltr">Extension points</text></g><g stroke-linecap="round"><g transform="translate(419.15039340920964 57.73116987787682) rotate(0 -3 87)"><path d="M0 0 C-1 29, -5 145, -6 174 M0 0 C-1 29, -5 145, -6 174" stroke="#000000" stroke-width="1" fill="none"></path></g><g transform="translate(419.15039340920964 57.73116987787682) rotate(0 -3 87)"><path d="M-15.28 145.47 C-13.32 151.51, -11.35 157.54, -6 174 M-15.28 145.47 C-12.56 153.84, -9.84 162.2, -6 174" stroke="#000000" stroke-width="1" fill="none"></path></g><g transform="translate(419.15039340920964 57.73116987787682) rotate(0 -3 87)"><path d="M5.23 146.18 C2.85 152.07, 0.48 157.95, -6 174 M5.23 146.18 C1.93 154.34, -1.36 162.5, -6 174" stroke="#000000" stroke-width="1" fill="none"></path></g></g><g stroke-linecap="round"><g transform="translate(421.15039340920964 56.73116987787682) rotate(0 19 131.5)"><path d="M0 0 C6.33 43.83, 31.67 219.17, 38 263 M0 0 C6.33 43.83, 31.67 219.17, 38 263" stroke="#000000" stroke-width="1" fill="none"></path></g><g transform="translate(421.15039340920964 56.73116987787682) rotate(0 19 131.5)"><path d="M23.81 236.57 C28.98 246.2, 34.15 255.83, 38 263 M23.81 236.57 C27.82 244.03, 31.82 251.49, 38 263" stroke="#000000" stroke-width="1" fill="none"></path></g><g transform="translate(421.15039340920964 56.73116987787682) rotate(0 19 131.5)"><path d="M44.12 233.63 C41.89 244.33, 39.66 255.03, 38 263 M44.12 233.63 C42.39 241.92, 40.67 250.22, 38 263" stroke="#000000" stroke-width="1" fill="none"></path></g></g></svg>