<svg version="1.1" xmlns="http://www.w3.org/2000/svg" viewBox="0 0 685.6503934092096 454.7311698778768" width="1371.3007868184193" height="909.4623397557536">
  <!-- svg-source:excalidraw -->
  
  <defs>
    <style>
      @font-face {
        font-family: "Virgil";
        src: url("https://excalidraw.com/Virgil.woff2");
      }
      @font-face {
        font-family: "Cascadia";
        src: url("https://excalidraw.com/Cascadia.woff2");
      }
    </style>
  </defs>
  <g transform="translate(10.1503934092093 10.731169877876596) rotate(359.31793960682734 61.5 13)"><text x="0" y="18" font-family="-apple-system, BlinkMacSystemFont, 'Segoe UI', Helvetica, 'Apple Color Emoji', Arial, sans-serif, 'Segoe UI Emoji', 'Segoe UI Symbol'" font-size="20px" fill="#000000" text-anchor="start" style="white-space: pre;" direction="ltr">Ease of use</text></g><g transform="translate(524.1503934092096 418.7311698778768) rotate(0 61 13)"><text x="0" y="18" font-family="-apple-system, BlinkMacSystemFont, 'Segoe UI', Helvetica, 'Apple Color Emoji', Arial, sans-serif, 'Segoe UI Emoji', 'Segoe UI Symbol'" font-size="20px" fill="#000000" text-anchor="start" style="white-space: pre;" direction="ltr">Functionality</text></g><g stroke-linecap="round"><g transform="translate(53.77906993596048 436.8152001228268) rotate(359.34630348216996 2.1619740791484787 -195.37633343059866)"><path d="M-1.2 0.16 C-0.4 -65.01, 4.5 -325.71, 5.52 -390.92 M0.38 -0.8 C1 -65.78, 4.27 -324.54, 4.91 -389.37" stroke="#000000" stroke-width="2" fill="none"></path></g><g transform="translate(53.77906993596048 436.8152001228268) rotate(359.34630348216996 2.1619740791484787 -195.37633343059866)"><path d="M15.12 -360 C11.21 -371.35, 7.34 -380.53, 3.33 -388 M15.57 -360.1 C12.46 -367.3, 10.56 -373.29, 4.9 -388.88" stroke="#000000" stroke-width="2" fill="none"></path></g><g transform="translate(53.77906993596048 436.8152001228268) rotate(359.34630348216996 2.1619740791484787 -195.37633343059866)"><path d="M-5.4 -360.24 C-1.84 -371.3, 1.75 -380.39, 3.33 -388 M-4.95 -360.33 C-3.87 -367.34, -1.59 -373.28, 4.9 -388.88" stroke="#000000" stroke-width="2" fill="none"></path></g></g><g stroke-linecap="round"><g transform="translate(56.15039340920964 438.7311698778768) rotate(0 228.7034456472844 -0.5212082483619724)"><path d="M-0.89 -0.93 C75.3 -0.91, 381.85 -0.28, 458.3 -0.42 M0.85 1.2 C76.8 0.91, 381.49 -1.9, 457.5 -2.24" stroke="#000000" stroke-width="2" fill="none"></path></g><g transform="translate(56.15039340920964 438.7311698778768) rotate(0 228.7034456472844 -0.5212082483619724)"><path d="M427.84 8.72 C441.58 3.96, 450.54 -0.41, 458.89 -1.05 M428.58 7.28 C438.68 4.39, 447.78 1.85, 457.61 -2.49" stroke="#000000" stroke-width="2" fill="none"></path></g><g transform="translate(56.15039340920964 438.7311698778768) rotate(0 228.7034456472844 -0.5212082483619724)"><path d="M427.69 -11.81 C441.4 -8.4, 450.42 -4.62, 458.89 -1.05 M428.43 -13.24 C438.64 -9.48, 447.79 -5.37, 457.61 -2.49" stroke="#000000" stroke-width="2" fill="none"></path></g></g><g stroke-linecap="round"><g transform="translate(344.15039340920964 435.7311698778768) rotate(0 0.22838271286190093 -176.7661045711488)"><path d="M0.29 0.97 C0.5 -58.21, 0.29 -295.38, 0.08 -354.51" stroke="#343a40" stroke-width="1.5" fill="none" stroke-dasharray="8 9"></path></g></g><g transform="translate(58.15039340920964 111.73116987787682) rotate(0 142 19.5)" stroke="none" fill="#000000"><path d="M 1.10,-2.20 Q 1.10,-2.20 1.70,-1.96 2.29,-1.72 3.42,-1.81 4.56,-1.89 5.95,-1.99 7.35,-2.08 9.16,-1.27 10.97,-0.47 11.94,-0.91 12.92,-1.35 14.24,-1.40 15.56,-1.45 16.67,-1.48 17.78,-1.51 19.15,-1.54 20.52,-1.56 21.66,-1.59 22.81,-1.61 24.17,-1.64 25.54,-1.66 27.92,-0.11 30.30,1.43 29.35,0.72 28.40,0.02 29.96,0.27 31.51,0.53 32.66,0.38 33.80,0.22 35.49,1.04 37.18,1.86 38.37,1.52 39.56,1.19 40.68,1.18 41.80,1.18 43.08,1.18 44.35,1.18 45.81,1.19 47.26,1.20 48.47,1.21 49.68,1.22 51.32,1.24 52.97,1.26 54.21,1.26 55.46,1.25 56.61,1.25 57.76,1.24 59.03,1.24 60.29,1.25 61.74,1.26 63.19,1.26 64.33,1.26 65.47,1.25 66.87,1.26 68.27,1.26 69.78,1.26 71.29,1.26 72.77,1.27 74.26,1.27 75.35,1.27 76.44,1.27 77.91,1.28 79.37,1.29 80.86,1.29 82.34,1.28 83.53,1.28 84.72,1.27 86.08,1.27 87.45,1.26 89.08,1.94 90.72,2.61 92.20,2.91 93.69,3.21 95.11,3.27 96.54,3.34 97.82,3.84 99.09,4.34 100.44,4.35 101.79,4.36 103.07,4.91 104.36,5.45 105.85,5.36 107.34,5.27 108.99,5.92 110.65,6.58 112.03,7.02 113.41,7.46 115.57,8.04 117.73,8.62 119.42,9.25 121.10,9.89 122.22,9.58 123.33,9.27 124.83,9.27 126.34,9.27 127.99,9.93 129.64,10.58 131.05,10.42 132.46,10.25 133.61,10.25 134.76,10.24 136.06,10.24 137.35,10.24 138.82,10.24 140.29,10.24 142.30,10.82 144.31,11.39 145.39,11.32 146.47,11.24 147.88,11.24 149.30,11.24 150.37,11.24 151.44,11.24 153.42,11.84 155.40,12.43 156.56,12.34 157.71,12.24 159.01,12.24 160.30,12.24 162.09,12.96 163.87,13.68 165.60,14.01 167.32,14.34 168.54,14.28 169.75,14.22 171.75,14.90 173.74,15.58 175.11,15.39 176.49,15.20 177.65,15.20 178.81,15.19 181.27,16.38 183.73,17.57 184.55,16.87 185.37,16.18 186.45,16.17 187.54,16.17 189.69,16.57 191.84,16.98 192.96,17.08 194.08,17.19 195.20,17.20 196.32,17.21 197.99,17.87 199.67,18.53 200.73,18.36 201.80,18.20 203.59,18.79 205.38,19.38 206.86,19.30 208.34,19.21 210.06,19.90 211.78,20.59 213.56,20.96 215.34,21.33 217.47,21.61 219.61,21.89 220.51,22.50 221.41,23.11 222.48,22.65 223.55,22.19 225.40,23.03 227.24,23.86 228.42,23.99 229.61,24.12 231.18,24.85 232.75,25.58 233.70,26.57 234.64,27.57 235.95,28.28 237.25,28.99 236.21,28.09 235.17,27.18 236.36,27.18 237.56,27.19 238.68,27.18 239.81,27.17 241.73,27.85 243.65,28.53 244.48,29.28 245.32,30.03 244.08,29.08 242.84,28.14 244.20,28.15 245.55,28.15 247.73,29.43 249.90,30.71 250.73,29.92 251.56,29.14 252.69,29.13 253.81,29.13 254.89,29.13 255.96,29.12 257.26,29.12 258.56,29.12 259.69,29.12 260.81,29.12 261.88,29.11 262.96,29.11 264.26,29.11 265.56,29.11 267.74,30.41 269.93,31.70 268.86,31.21 267.79,30.72 268.85,30.41 269.91,30.11 271.24,30.11 272.57,30.11 273.69,30.10 274.81,30.10 275.89,30.10 276.96,30.10 279.91,32.02 282.86,33.95 281.57,32.81 280.27,31.68 281.79,32.25 283.31,32.81 284.40,34.11 285.49,35.41 285.69,36.49 285.89,37.57 286.86,37.93 287.82,38.30 287.83,38.93 287.84,39.56 287.65,40.16 287.46,40.76 287.09,41.26 286.72,41.77 286.20,42.13 285.68,42.49 285.08,42.67 284.48,42.85 283.85,42.83 283.22,42.80 282.63,42.58 282.04,42.36 281.56,41.96 281.07,41.56 280.74,41.02 280.40,40.49 280.26,39.88 280.11,39.26 280.17,38.64 280.23,38.01 280.48,37.43 280.74,36.86 281.16,36.39 281.59,35.93 282.14,35.63 282.69,35.32 283.31,35.21 283.93,35.10 284.55,35.19 285.18,35.28 285.74,35.57 286.30,35.85 286.74,36.30 287.18,36.75 287.45,37.32 287.73,37.89 287.80,38.51 287.88,39.14 287.76,39.75 287.63,40.37 287.32,40.92 287.00,41.46 286.53,41.88 286.05,42.29 285.47,42.53 284.89,42.78 284.26,42.82 283.63,42.86 283.03,42.71 282.42,42.55 281.89,42.20 281.36,41.86 280.97,41.36 280.58,40.87 280.37,40.27 280.16,39.68 280.16,39.68 280.16,39.68 279.25,38.13 278.34,36.58 279.95,38.23 281.56,39.88 279.64,38.92 277.71,37.95 276.41,36.00 275.12,34.04 276.46,35.97 277.81,37.89 276.69,37.89 275.57,37.89 274.27,37.89 272.96,37.89 271.89,37.88 270.81,37.88 269.68,37.88 268.55,37.88 267.38,37.56 266.20,37.24 264.94,35.77 263.69,34.29 264.25,35.58 264.81,36.88 263.68,36.88 262.56,36.88 261.26,36.87 259.96,36.87 258.89,36.87 257.81,36.87 256.67,36.87 255.54,36.86 254.25,36.86 252.96,36.86 251.89,36.86 250.81,36.85 249.66,36.84 248.50,36.84 247.32,36.62 246.13,36.39 244.92,34.84 243.72,33.28 244.12,34.56 244.53,35.83 243.40,35.81 242.27,35.79 241.22,35.23 240.16,34.67 239.23,33.89 238.30,33.11 239.63,33.97 240.96,34.83 239.89,34.82 238.81,34.81 237.67,34.81 236.52,34.80 235.21,34.73 233.90,34.66 232.10,33.55 230.30,32.44 228.69,31.86 227.08,31.28 226.00,30.98 224.92,30.68 223.72,30.24 222.53,29.79 221.38,29.77 220.23,29.74 218.77,29.26 217.31,28.78 216.10,28.73 214.90,28.69 213.71,28.24 212.53,27.79 211.40,27.77 210.26,27.74 209.30,27.26 208.34,26.78 206.87,26.77 205.41,26.77 203.77,26.23 202.14,25.69 200.91,25.73 199.68,25.78 198.51,25.62 197.34,25.46 195.93,25.12 194.53,24.78 193.21,24.75 191.90,24.71 190.69,24.27 189.49,23.83 188.15,23.82 186.81,23.82 185.67,23.82 184.53,23.82 183.38,23.79 182.24,23.77 181.19,23.57 180.15,23.37 178.99,21.90 177.83,20.42 179.16,21.61 180.49,22.81 179.23,22.80 177.96,22.80 176.88,22.79 175.79,22.78 174.67,22.77 173.54,22.75 172.44,22.60 171.33,22.45 169.85,22.10 168.36,21.76 166.80,21.57 165.25,21.38 164.24,21.05 163.23,20.72 161.96,20.24 160.70,19.76 159.61,19.76 158.51,19.76 157.41,19.75 156.31,19.75 155.12,19.69 153.93,19.64 152.10,19.19 150.27,18.74 148.87,18.75 147.47,18.75 146.36,18.74 145.26,18.73 143.81,18.58 142.36,18.44 141.33,18.10 140.29,17.75 139.01,17.75 137.72,17.76 136.60,17.75 135.47,17.75 134.41,17.74 133.34,17.74 131.88,17.73 130.43,17.73 129.09,17.62 127.74,17.52 126.59,17.12 125.44,16.72 124.37,16.72 123.30,16.71 122.11,16.69 120.91,16.67 119.61,16.52 118.30,16.37 117.27,16.02 116.23,15.67 115.22,15.19 114.22,14.71 113.06,14.66 111.91,14.61 110.13,14.01 108.35,13.41 106.78,13.06 105.22,12.70 104.07,12.65 102.93,12.61 101.08,12.14 99.22,11.67 97.62,11.16 96.01,10.65 94.63,10.67 93.25,10.68 91.57,10.15 89.89,9.63 88.67,9.18 87.45,8.73 86.08,8.72 84.72,8.72 83.53,8.71 82.34,8.71 80.86,8.70 79.37,8.70 77.91,8.71 76.44,8.72 75.35,8.72 74.26,8.72 72.77,8.72 71.29,8.73 69.78,8.73 68.27,8.73 66.87,8.73 65.47,8.74 64.33,8.73 63.19,8.73 61.94,8.74 60.70,8.75 59.58,8.75 58.47,8.75 57.41,8.74 56.34,8.74 54.95,8.74 53.56,8.73 52.29,8.74 51.01,8.75 49.64,8.76 48.26,8.78 46.78,8.79 45.30,8.80 44.05,8.81 42.80,8.82 41.65,8.81 40.49,8.81 39.20,8.80 37.92,8.80 36.80,8.78 35.69,8.77 34.74,8.27 33.80,7.77 32.61,7.75 31.42,7.73 29.98,7.22 28.53,6.71 27.05,6.16 25.56,5.61 24.54,4.08 23.53,2.56 25.17,4.12 26.81,5.68 25.68,5.67 24.56,5.65 23.23,5.62 21.90,5.60 20.81,5.57 19.72,5.55 18.60,5.53 17.48,5.50 16.14,5.46 14.80,5.43 13.68,5.38 12.55,5.33 11.41,5.27 10.27,5.20 8.81,4.64 7.35,4.08 5.95,3.99 4.55,3.89 3.44,3.78 2.32,3.67 1.16,3.27 0.00,2.87 -0.55,2.53 -1.10,2.20 -1.35,2.04 -1.59,1.87 -1.80,1.65 -2.00,1.44 -2.14,1.18 -2.28,0.91 -2.36,0.63 -2.44,0.34 -2.44,0.04 -2.45,-0.24 -2.38,-0.53 -2.32,-0.82 -2.18,-1.09 -2.05,-1.36 -1.86,-1.58 -1.67,-1.81 -1.43,-1.98 -1.18,-2.16 -0.91,-2.27 -0.63,-2.38 -0.34,-2.42 -0.04,-2.46 0.24,-2.43 0.54,-2.40 0.82,-2.30 1.10,-2.20 1.10,-2.20 L 1.10,-2.20 Z"></path></g><g stroke-linecap="round"><g transform="translate(77.15039340920964 185.73116987787682) rotate(0 123.18732331719718 -1.1574111873330537)"><path d="M0.04 0.23 C41.19 0.03, 206.65 -0.54, 247.77 -0.62 M-1.4 -0.69 C39.58 -1.32, 206.02 -2.29, 247.23 -2.55" stroke="#000000" stroke-width="1" fill="none"></path></g><g transform="translate(77.15039340920964 185.73116987787682) rotate(0 123.18732331719718 -1.1574111873330537)"><path d="M219.49 9.17 C230.22 3.53, 241.35 0.07, 249.17 -2.13 M218.95 8.76 C228.59 4.85, 239.29 -0.04, 247.54 -1.66" stroke="#000000" stroke-width="1" fill="none"></path></g><g transform="translate(77.15039340920964 185.73116987787682) rotate(0 123.18732331719718 -1.1574111873330537)"><path d="M219.37 -11.35 C230.24 -9.3, 241.42 -5.07, 249.17 -2.13 M218.83 -11.76 C228.64 -8.55, 239.38 -6.33, 247.54 -1.66" stroke="#000000" stroke-width="1" fill="none"></path></g></g><g transform="translate(78.15039340920964 202.73116987787682) rotate(0 121 51)"><text x="0" y="18.5" font-family="-apple-system, BlinkMacSystemFont, 'Segoe UI', Helvetica, 'Apple Color Emoji', Arial, sans-serif, 'Segoe UI Emoji', 'Segoe UI Symbol'" font-size="20px" fill="#000000" text-anchor="start" style="white-space: pre;" direction="ltr">Really easy to build</text><text x="0" y="44" font-family="-apple-system, BlinkMacSystemFont, 'Segoe UI', Helvetica, 'Apple Color Emoji', Arial, sans-serif, 'Segoe UI Emoji', 'Segoe UI Symbol'" font-size="20px" fill="#000000" text-anchor="start" style="white-space: pre;" direction="ltr">an application as</text><text x="0" y="69.5" font-family="-apple-system, BlinkMacSystemFont, 'Segoe UI', Helvetica, 'Apple Color Emoji', Arial, sans-serif, 'Segoe UI Emoji', 'Segoe UI Symbol'" font-size="20px" fill="#000000" text-anchor="start" style="white-space: pre;" direction="ltr">long as the functionality</text><text x="0" y="95" font-family="-apple-system, BlinkMacSystemFont, 'Segoe UI', Helvetica, 'Apple Color Emoji', Arial, sans-serif, 'Segoe UI Emoji', 'Segoe UI Symbol'" font-size="20px" fill="#000000" text-anchor="start" style="white-space: pre;" direction="ltr">is provided.</text></g><g transform="translate(251.15039340920964 27.731169877876823) rotate(0 103.5 25.5)"><text x="103.5" y="18.5" font-family="-apple-system, BlinkMacSystemFont, 'Segoe UI', Helvetica, 'Apple Color Emoji', Arial, sans-serif, 'Segoe UI Emoji', 'Segoe UI Symbol'" font-size="20px" fill="#000000" text-anchor="middle" style="white-space: pre;" direction="ltr">Limit to functionality</text><text x="103.5" y="44" font-family="-apple-system, BlinkMacSystemFont, 'Segoe UI', Helvetica, 'Apple Color Emoji', Arial, sans-serif, 'Segoe UI Emoji', 'Segoe UI Symbol'" font-size="20px" fill="#000000" text-anchor="middle" style="white-space: pre;" direction="ltr">by the platform</text></g><g transform="translate(345.15039340920964 152.73116987787682) rotate(0 -0.5 142)" stroke="none" fill="#000000"><path d="M 2.54,0 Q 2.54,0 2.58,0.86 2.63,1.72 2.72,3.06 2.82,4.40 2.90,5.47 2.98,6.55 3.06,7.68 3.14,8.81 3.20,9.89 3.26,10.96 3.32,12.26 3.38,13.56 3.42,14.69 3.46,15.81 3.50,16.88 3.53,17.96 3.56,19.26 3.59,20.56 3.61,21.68 3.64,22.81 3.66,23.89 3.68,24.96 3.70,26.27 3.71,27.57 3.71,28.75 3.70,29.93 3.67,31.35 3.65,32.77 3.64,33.97 3.63,35.17 3.65,36.32 3.66,37.47 3.68,38.62 3.69,39.78 3.71,40.85 3.72,41.92 3.74,43.20 3.75,44.49 3.75,45.63 3.76,46.77 3.77,47.84 3.78,48.90 3.78,50.22 3.79,51.53 3.77,52.71 3.75,53.88 3.70,55.06 3.64,56.25 3.60,57.95 3.57,59.65 3.51,60.90 3.45,62.15 3.42,63.25 3.39,64.36 3.37,66.14 3.35,67.91 3.35,69.46 3.35,71.01 3.38,72.16 3.41,73.31 3.45,74.44 3.49,75.57 3.52,76.68 3.55,77.80 3.45,79.29 3.36,80.79 2.93,83.39 2.49,85.99 2.33,87.69 2.17,89.40 2.10,91.73 2.02,94.07 2.03,95.72 2.05,97.37 2.08,98.73 2.12,100.10 2.17,101.30 2.23,102.51 2.25,104.07 2.28,105.64 2.28,107.30 2.28,108.96 2.30,110.08 2.33,111.20 2.36,112.44 2.39,113.68 2.42,115.01 2.46,116.35 2.48,117.55 2.51,118.76 2.53,120.11 2.56,121.45 2.58,122.63 2.61,123.81 2.58,125.16 2.55,126.51 2.50,128.39 2.45,130.27 2.40,132.25 2.36,134.23 2.55,135.44 2.75,136.65 2.92,137.90 3.10,139.16 3.23,140.68 3.36,142.21 3.40,143.38 3.44,144.54 3.43,146.02 3.42,147.50 3.34,149.68 3.26,151.85 3.27,153.32 3.28,154.80 2.91,156.18 2.54,157.57 2.40,159.28 2.26,160.98 2.25,162.38 2.24,163.78 2.26,164.98 2.28,166.17 2.31,167.30 2.35,168.43 2.33,170.32 2.32,172.21 2.33,173.52 2.34,174.82 2.32,176.70 2.30,178.57 2.28,180.55 2.25,182.53 2.26,184.11 2.27,185.70 2.31,187.08 2.36,188.45 2.38,190.05 2.39,191.64 2.38,193.30 2.37,194.96 2.38,196.08 2.40,197.20 2.40,198.63 2.40,200.07 2.43,201.24 2.45,202.42 1.04,201.58 -0.36,200.74 1.04,201.67 2.45,202.59 2.98,203.89 3.51,205.20 3.52,206.64 3.53,208.08 3.49,209.73 3.46,211.38 3.45,213.02 3.43,214.67 3.42,216.03 3.42,217.39 3.44,218.83 3.46,220.27 3.49,221.41 3.52,222.55 3.48,224.42 3.43,226.28 3.37,227.63 3.30,228.99 3.27,230.14 3.24,231.29 3.19,232.64 3.14,234.00 3.12,235.15 3.10,236.30 3.09,237.36 3.09,238.42 3.05,239.74 3.02,241.05 3.05,242.55 3.09,244.04 3.13,245.13 3.17,246.22 3.22,247.30 3.27,248.38 3.27,250.03 3.27,251.67 3.27,253.32 3.27,254.97 3.29,256.37 3.30,257.78 3.32,258.97 3.34,260.17 3.38,261.35 3.42,262.53 3.44,263.85 3.45,265.17 3.45,266.49 3.45,267.82 3.44,269.41 3.43,271.00 3.44,272.10 3.45,273.21 3.48,274.36 3.50,275.51 3.53,276.66 3.57,277.81 3.59,278.89 3.62,279.96 3.63,281.98 3.64,284 3.55,284.58 3.45,285.16 3.18,285.68 2.90,286.20 2.47,286.61 2.04,287.02 1.51,287.26 0.97,287.51 0.38,287.57 -0.19,287.64 -0.77,287.51 -1.35,287.38 -1.85,287.08 -2.36,286.78 -2.74,286.33 -3.12,285.88 -3.34,285.33 -3.56,284.78 -3.59,284.19 -3.62,283.60 -3.46,283.03 -3.31,282.46 -2.98,281.97 -2.64,281.49 -2.17,281.13 -1.70,280.77 -1.14,280.58 -0.58,280.39 0.00,280.39 0.59,280.39 1.15,280.58 1.70,280.77 2.17,281.13 2.64,281.49 2.98,281.97 3.31,282.46 3.46,283.03 3.62,283.60 3.59,284.19 3.56,284.78 3.34,285.33 3.12,285.88 2.74,286.33 2.36,286.78 1.85,287.08 1.34,287.39 0.77,287.51 0.19,287.64 -0.39,287.57 -0.97,287.51 -1.51,287.26 -2.04,287.01 -2.47,286.61 -2.90,286.20 -3.18,285.68 -3.45,285.16 -3.55,284.58 -3.64,283.99 -3.64,283.99 -3.64,284 -3.63,281.98 -3.62,279.96 -3.59,278.89 -3.57,277.81 -3.53,276.66 -3.50,275.51 -3.48,274.36 -3.45,273.21 -3.44,272.10 -3.43,271.00 -3.44,269.41 -3.45,267.82 -3.45,266.49 -3.45,265.17 -3.44,263.85 -3.42,262.53 -3.38,261.35 -3.34,260.17 -3.32,258.97 -3.30,257.78 -3.29,256.37 -3.27,254.97 -3.27,253.32 -3.27,251.67 -3.27,250.03 -3.27,248.38 -3.22,247.30 -3.17,246.22 -3.13,245.13 -3.09,244.04 -3.05,242.55 -3.02,241.05 -3.05,239.74 -3.09,238.42 -3.09,237.36 -3.10,236.30 -3.12,235.15 -3.14,234.00 -3.19,232.64 -3.24,231.29 -3.27,230.14 -3.30,228.99 -3.37,227.63 -3.43,226.28 -3.48,224.42 -3.52,222.55 -3.49,221.41 -3.46,220.27 -3.44,218.83 -3.42,217.40 -3.42,216.03 -3.43,214.67 -3.45,213.03 -3.46,211.38 -3.50,209.75 -3.54,208.12 -3.55,206.65 -3.56,205.18 -2.59,206.12 -1.63,207.05 -3.04,204.74 -4.45,202.42 -4.43,201.24 -4.40,200.07 -4.40,198.63 -4.40,197.20 -4.38,196.08 -4.37,194.96 -4.38,193.30 -4.39,191.64 -4.38,190.05 -4.36,188.45 -4.31,187.08 -4.27,185.70 -4.26,184.11 -4.25,182.53 -4.28,180.55 -4.30,178.57 -4.32,176.70 -4.34,174.82 -4.33,173.52 -4.32,172.21 -4.36,170.87 -4.39,169.53 -4.35,168.37 -4.30,167.21 -4.27,166.12 -4.25,165.02 -4.22,163.48 -4.19,161.94 -4.09,160.38 -3.98,158.83 -3.63,156.77 -3.28,154.71 -3.27,153.28 -3.26,151.85 -3.34,150.39 -3.42,148.94 -3.44,147.21 -3.47,145.49 -3.43,144.39 -3.40,143.29 -3.39,142.05 -3.38,140.81 -3.49,139.72 -3.60,138.64 -3.98,136.43 -4.36,134.23 -4.40,132.25 -4.45,130.27 -4.50,128.39 -4.55,126.51 -4.58,125.16 -4.61,123.81 -4.58,122.63 -4.56,121.45 -4.53,120.11 -4.51,118.76 -4.48,117.55 -4.46,116.35 -4.42,115.01 -4.39,113.68 -4.36,112.44 -4.33,111.20 -4.30,110.08 -4.28,108.96 -4.28,107.30 -4.28,105.64 -4.25,104.07 -4.23,102.51 -4.17,101.30 -4.12,100.09 -4.08,98.73 -4.04,97.36 -4.02,95.69 -4.00,94.02 -4.02,92.69 -4.05,91.35 -4.03,90.24 -4.02,89.13 -3.83,87.04 -3.64,84.95 -3.50,82.87 -3.36,80.79 -3.45,79.29 -3.55,77.80 -3.52,76.68 -3.49,75.57 -3.45,74.44 -3.41,73.31 -3.38,72.16 -3.35,71.01 -3.35,69.46 -3.35,67.91 -3.37,66.14 -3.39,64.36 -3.42,63.25 -3.45,62.15 -3.51,60.90 -3.57,59.65 -3.60,57.95 -3.64,56.25 -3.70,55.06 -3.75,53.88 -3.77,52.71 -3.79,51.53 -3.78,50.22 -3.78,48.90 -3.77,47.84 -3.76,46.77 -3.75,45.63 -3.75,44.49 -3.74,43.20 -3.72,41.92 -3.71,40.85 -3.69,39.78 -3.68,38.62 -3.66,37.47 -3.65,36.32 -3.63,35.17 -3.64,33.97 -3.65,32.77 -3.67,31.35 -3.70,29.93 -3.71,28.75 -3.71,27.57 -3.70,26.27 -3.68,24.96 -3.66,23.89 -3.64,22.81 -3.61,21.68 -3.59,20.56 -3.56,19.26 -3.53,17.96 -3.50,16.88 -3.46,15.81 -3.42,14.69 -3.38,13.56 -3.32,12.26 -3.26,10.96 -3.20,9.89 -3.14,8.81 -3.06,7.68 -2.98,6.55 -2.90,5.47 -2.82,4.40 -2.72,3.06 -2.63,1.72 -2.58,0.86 -2.54,0 -2.50,-0.30 -2.46,-0.60 -2.36,-0.89 -2.25,-1.18 -2.07,-1.43 -1.90,-1.68 -1.67,-1.89 -1.44,-2.09 -1.17,-2.23 -0.90,-2.37 -0.60,-2.45 -0.30,-2.52 0.00,-2.52 0.30,-2.52 0.60,-2.45 0.90,-2.37 1.17,-2.23 1.44,-2.09 1.67,-1.88 1.90,-1.68 2.07,-1.43 2.25,-1.18 2.36,-0.89 2.46,-0.60 2.50,-0.30 2.54,0.00 2.54,0.00 L 2.54,0 Z"></path></g><g transform="translate(418.65039340920964 215.73116987787682) rotate(0 128.5 38.5)"><text x="0" y="17.666666666666668" font-family="-apple-system, BlinkMacSystemFont, 'Segoe UI', Helvetica, 'Apple Color Emoji', Arial, sans-serif, 'Segoe UI Emoji', 'Segoe UI Symbol'" font-size="20px" fill="#000000" text-anchor="start" style="white-space: pre;" direction="ltr">Sadness.</text><text x="0" y="43.333333333333336" font-family="-apple-system, BlinkMacSystemFont, 'Segoe UI', Helvetica, 'Apple Color Emoji', Arial, sans-serif, 'Segoe UI Emoji', 'Segoe UI Symbol'" font-size="20px" fill="#000000" text-anchor="start" style="white-space: pre;" direction="ltr">Can't extend so clients have </text><text x="0" y="69" font-family="-apple-system, BlinkMacSystemFont, 'Segoe UI', Helvetica, 'Apple Color Emoji', Arial, sans-serif, 'Segoe UI Emoji', 'Segoe UI Symbol'" font-size="20px" fill="#000000" text-anchor="start" style="white-space: pre;" direction="ltr">to build from scratch.</text></g><g stroke-linecap="round"><g transform="translate(417.3255083117939 209.87927450298798) rotate(0 -35.08755745129213 -32.930052312555574)"><path d="M0 0 C-1.53 -7.02, -3.65 -31.29, -9.18 -42.15 C-14.7 -53.01, -23.01 -62.15, -33.18 -65.15 C-43.34 -68.15, -64.01 -60.98, -70.18 -60.15 M0 0 C-1.53 -7.02, -3.65 -31.29, -9.18 -42.15 C-14.7 -53.01, -23.01 -62.15, -33.18 -65.15 C-43.34 -68.15, -64.01 -60.98, -70.18 -60.15" stroke="#000000" stroke-width="1" fill="none"></path></g><g transform="translate(417.3255083117939 209.87927450298798) rotate(0 -35.08755745129213 -32.930052312555574)"><path d="M-54.5 -70.29 C-59.92 -66.78, -65.34 -63.28, -70.18 -60.15 M-54.5 -70.29 C-59.92 -66.78, -65.34 -63.28, -70.18 -60.15" stroke="#000000" stroke-width="1" fill="none"></path></g><g transform="translate(417.3255083117939 209.87927450298798) rotate(0 -35.08755745129213 -32.930052312555574)"><path d="M-51.65 -57.84 C-58.05 -58.64, -64.46 -59.44, -70.18 -60.15 M-51.65 -57.84 C-58.06 -58.64, -64.46 -59.44, -70.18 -60.15" stroke="#000000" stroke-width="1" fill="none"></path></g></g></svg>