<svg version="1.1" xmlns="http://www.w3.org/2000/svg" viewBox="0 0 34 33" width="34" height="33">
  <!-- svg-source:excalidraw -->
  
  <defs>
    <style>
      @font-face {
        font-family: "Virgil";
        src: url("https://excalidraw.com/Virgil.woff2");
      }
      @font-face {
        font-family: "Cascadia";
        src: url("https://excalidraw.com/Cascadia.woff2");
      }
    </style>
  </defs>
  <g stroke-linecap="round"><g transform="translate(10 10) rotate(0 0 1.5)"><path d="M0 0 C0 0.5, 0 2.5, 0 3 M0 0 C0 0.5, 0 2.5, 0 3" stroke="#c92a2a" stroke-width="2" fill="none"></path></g></g><g stroke-linecap="round"><g transform="translate(10.5 13.5) rotate(0 2 0)"><path d="M0 0 C0.67 0, 3.33 0, 4 0 M0 0 C0.67 0, 3.33 0, 4 0" stroke="#000000" stroke-width="2" fill="none"></path></g></g><g stroke-linecap="round"><g transform="translate(15 14.5) rotate(0 0 1.5)"><path d="M0 0 C0 0.5, 0 2.5, 0 3 M0 0 C0 0.5, 0 2.5, 0 3" stroke="#c92a2a" stroke-width="2" fill="none"></path></g></g><g stroke-linecap="round"><g transform="translate(20 18.5) rotate(0 0 1.5)"><path d="M0 0 C0 0.5, 0 2.5, 0 3 M0 0 C0 0.5, 0 2.5, 0 3" stroke="#c92a2a" stroke-width="2" fill="none"></path></g></g><g stroke-linecap="round"><g transform="translate(16 18) rotate(0 2 0)"><path d="M0 0 C0.67 0, 3.33 0, 4 0 M0 0 C0.67 0, 3.33 0, 4 0" stroke="#000000" stroke-width="2" fill="none"></path></g></g><g stroke-linecap="round"><g transform="translate(20 23) rotate(0 2 0)"><path d="M0 0 C0.67 0, 3.33 0, 4 0 M0 0 C0.67 0, 3.33 0, 4 0" stroke="#000000" stroke-width="2" fill="none"></path></g></g></svg>